<?xml version="1.0" encoding="utf-8"?>
<!-- Generator: Adobe Illustrator 26.0.1, SVG Export Plug-In . SVG Version: 6.00 Build 0)  -->
<svg version="1.1" id="Layer_1" xmlns="http://www.w3.org/2000/svg" xmlns:xlink="http://www.w3.org/1999/xlink" x="0px" y="0px"
	 viewBox="0 0 50 50" style="enable-background:new 0 0 50 50;" xml:space="preserve">
<style type="text/css">
	.st0{fill:#FFFFFF;}
</style>
<path class="st0" d="M9,40.8c0.2,0.2,0.5,0.3,0.7,0.3s0.5-0.1,0.7-0.3l14.3-14.3L39,40.8c0.2,0.2,0.5,0.3,0.7,0.3
	c0.3,0,0.5-0.1,0.7-0.3c0.4-0.4,0.4-1,0-1.4L26.2,25.1l14.3-14.3c0.4-0.4,0.4-1,0-1.4C40,9,39.4,9,39,9.4L24.7,23.7L10.4,9.4
	C10,9,9.4,9,9,9.4c-0.4,0.4-0.4,1,0,1.4l14.3,14.3L9,39.4C8.6,39.8,8.6,40.4,9,40.8z"/>
</svg>
