<svg id="Calque_1" data-name="Calque 1" xmlns="http://www.w3.org/2000/svg" viewBox="0 0 570.93 306.59"><defs><style>.cls-1{fill:#020303;}.cls-2,.cls-4{fill:#010101;}.cls-2{fill-rule:evenodd;}.cls-3{fill:#fff;}.cls-5{fill:#f4f3f4;}.cls-6{fill:#1e180f;}</style></defs><path class="cls-1" d="M560.81,342.61a21.73,21.73,0,0,1,9.66,8.93c2.2,4.06,2.46,9.16-.79,12.65-1.54,1.65-3.59,2.62-5.43,3.81a14.88,14.88,0,0,0-4,3.23h0a15,15,0,0,1,4-3.23c1.84-1.19,3.9-2.16,5.44-3.81,3.25-3.49,3-8.59.78-12.65a23.7,23.7,0,0,0-15.37-10.93,14.23,14.23,0,0,0-2.43-.2,14.31,14.31,0,0,1,2.43.2A22.05,22.05,0,0,1,560.81,342.61Z" transform="translate(-135.75 -90.06)"/><path class="cls-1" d="M565.82,363.2h0Z" transform="translate(-135.75 -90.06)"/><path class="cls-1" d="M568.81,361.4h0Z" transform="translate(-135.75 -90.06)"/><path class="cls-1" d="M489.3,318.59c6.75,3.18,13.62,6.05,20.46,9q-8.11-4.16-16.16-8.46-6.83-3.64-13.61-7.38a21.41,21.41,0,0,1-1.87,1.58Z" transform="translate(-135.75 -90.06)"/><path class="cls-1" d="M466,326.75c8.73,4.95,17.53,9.72,26.28,14.62,7.2,4,14.41,8.09,21.26,12.8a71.17,71.17,0,0,1,7.55,5.81c2.8,2.51,5.33,5.39,8.05,8,.43-8.55-8-13.89-14-17.38-3.62-2.13-7.35-4.07-11-6.14L492.77,338q-15.27-8.64-30.48-17.4c-1.36.52-2.69,1.08-4,1.7C460.85,323.8,463.4,325.29,466,326.75Z" transform="translate(-135.75 -90.06)"/><path class="cls-1" d="M567.31,352.36a19.77,19.77,0,0,0-8.68-7.15,15.47,15.47,0,0,0-5.42-1.48c-1.81-.1-3.62.11-5.44-.07a38.82,38.82,0,0,1-11.42-3.22c-4.17-1.78-8.26-3.78-12.43-5.58-4.68-2-9.36-4-14-6-4.61-2.17-9.22-4.35-13.84-6.49-6.06-2.81-12-5.95-18-9-4.58,3.44-10.07,5.07-15.36,7.08q8.79,4.83,17.6,9.6l27.32,14.73c4.3,2.32,8.72,4.4,12.81,7.15,3.7,2.49,7.7,5.6,9.48,10.08a15.54,15.54,0,0,1,1.14,6.71c-.12,1.49-.36,3-.37,4.53a20.63,20.63,0,0,0,1.21,6.42c1.82,5.55,5.52,11.16,11.26,12a13.29,13.29,0,0,0,6.11-.76,12.31,12.31,0,0,0,4.54-2.48,6.6,6.6,0,0,0,1.72-6.28c-.5-2.88-1.49-5.65-2-8.53a17.77,17.77,0,0,1-.18-7.78,16.86,16.86,0,0,1,2.15-5.62,16.27,16.27,0,0,0-1.08,5.51,16.82,16.82,0,0,0,.87,6.53,12.9,12.9,0,0,1,2.88-3.7c1.1-1,2.35-1.78,3.39-2.87a11.3,11.3,0,0,0,2.74-4.21,4.4,4.4,0,0,0-.79-3.9c1.85,1.73,2,4,1.14,6.36l1.19-.72h0a6.38,6.38,0,0,0,3.31-5A9.75,9.75,0,0,0,567.31,352.36Zm-32.5,29.87a19.19,19.19,0,0,1-1.72-8.36c0-3,.61-6.07.24-9a33.43,33.43,0,0,0-1.21-6.85,17.11,17.11,0,0,1,2,5.35,26.28,26.28,0,0,1,.51,7.62c-.16,5.06.09,10.1,3.08,14.22l.14.18a20.85,20.85,0,0,0,1.76,2A12.29,12.29,0,0,1,534.81,382.23Zm17.56,3.29a5.68,5.68,0,0,1-3.63,3.06,8,8,0,0,0,2.4-2.5,8.18,8.18,0,0,0,.88-3.9c.11-2.68-.75-5.29-.91-7.95a31.08,31.08,0,0,1,1.57,4.84c0-.22-.1-.51,0,.06,0,.11,0,.11,0,.07A10.71,10.71,0,0,1,552.37,385.52Z" transform="translate(-135.75 -90.06)"/><path class="cls-1" d="M558.48,372.92a8.5,8.5,0,0,0-1.07,2.23c-.41,1.3.26,3.24.83,4.4a15,15,0,0,0,.4,2.69,11.62,11.62,0,0,1,0,3.06,9.05,9.05,0,0,1-2.15,4.87c-2.45,2.83-6.41,4.28-9.87,4.76a12.17,12.17,0,0,1-1.59.13,12.17,12.17,0,0,0,1.59-.13c3.46-.48,7.43-1.93,9.88-4.76a9.2,9.2,0,0,0,2.15-4.87,12.54,12.54,0,0,0,0-3.06,14.24,14.24,0,0,1-.41-2.69c-.57-1.16-1.23-3.1-.82-4.4a8.47,8.47,0,0,1,1.06-2.23c.18-.26,1.22-1.64,1.6-1.73C559.7,371.27,558.65,372.66,558.48,372.92Z" transform="translate(-135.75 -90.06)"/><path class="cls-1" d="M537.87,385.36l-.1-.11C537.88,385.38,537.89,385.4,537.87,385.36Z" transform="translate(-135.75 -90.06)"/><path class="cls-1" d="M537.77,385.25l0-.07C537.67,385.11,537.64,385.07,537.77,385.25Z" transform="translate(-135.75 -90.06)"/><path class="cls-1" d="M560.08,371.19a.09.09,0,0,1,.12,0h0A.09.09,0,0,0,560.08,371.19Z" transform="translate(-135.75 -90.06)"/><path class="cls-1" d="M552.67,340.41c-.81,0-1.63,0-2.44,0h0C551.05,340.43,551.86,340.4,552.67,340.41Z" transform="translate(-135.75 -90.06)"/><path class="cls-1" d="M476.91,312.77l1.17.6,0,0Z" transform="translate(-135.75 -90.06)"/><path class="cls-1" d="M482.26,309.26a21.93,21.93,0,0,1-2.27,2.5q6.79,3.74,13.61,7.38,8.06,4.29,16.16,8.46c-6.84-3-13.71-5.83-20.46-9l-11.18-5.25,0,0c6,3,11.9,6.18,18,9,4.62,2.14,9.23,4.32,13.84,6.49,4.68,2,9.36,4,14,6,4.17,1.8,8.26,3.8,12.43,5.58a38.82,38.82,0,0,0,11.42,3.22c1.82.18,3.63,0,5.44.07a15.47,15.47,0,0,1,5.42,1.48,19.77,19.77,0,0,1,8.68,7.15,9.75,9.75,0,0,1,1.81,5.84,6.38,6.38,0,0,1-3.31,5h0l3-1.8h0l-3,1.8h0l-1.19.72c.84-2.39.71-4.63-1.14-6.36a4.4,4.4,0,0,1,.79,3.9,11.3,11.3,0,0,1-2.74,4.21c-1,1.09-2.29,1.87-3.39,2.87a12.9,12.9,0,0,0-2.88,3.7,16.82,16.82,0,0,1-.87-6.53,16.27,16.27,0,0,1,1.08-5.51,16.86,16.86,0,0,0-2.15,5.62,17.77,17.77,0,0,0,.18,7.78c.55,2.88,1.54,5.65,2,8.53a6.6,6.6,0,0,1-1.72,6.28,12.31,12.31,0,0,1-4.54,2.48,13.29,13.29,0,0,1-6.11.76c-5.74-.82-9.44-6.43-11.26-12a20.63,20.63,0,0,1-1.21-6.42c0-1.52.25-3,.37-4.53a15.54,15.54,0,0,0-1.14-6.71c-1.78-4.48-5.78-7.59-9.48-10.08-4.09-2.75-8.51-4.83-12.81-7.15l-27.32-14.73q-8.82-4.76-17.6-9.6l-.43.17q15.22,8.75,30.48,17.4l11.39,6.45c3.65,2.07,7.38,4,11,6.14,5.94,3.49,14.38,8.83,14,17.38-2.72-2.62-5.25-5.5-8.05-8a71.17,71.17,0,0,0-7.55-5.81c-6.85-4.71-14.06-8.78-21.26-12.8-8.75-4.9-17.55-9.67-26.28-14.62-2.57-1.46-5.12-2.95-7.68-4.43a31.2,31.2,0,0,0-3.37,1.81l2.29,1.34q6.12,3.54,12.26,7c8.8,4.93,17.67,9.71,26.43,14.71,7.08,4,14.25,8.14,20.73,13.27a90.27,90.27,0,0,1,7.64,7.27c.65.66,1.31,1.3,2,1.94l.75.73.62.6c.27.26.15.48.11.85a19.87,19.87,0,0,0,.57,6.24c1.12,4.81,3.32,9.62,6.77,12.95a13.89,13.89,0,0,0,10,4,12.17,12.17,0,0,0,1.59-.13c3.46-.48,7.42-1.93,9.87-4.76a9.05,9.05,0,0,0,2.15-4.87,11.62,11.62,0,0,0,0-3.06,15,15,0,0,1-.4-2.69c-.57-1.16-1.24-3.1-.83-4.4a8.5,8.5,0,0,1,1.07-2.23c.17-.26,1.22-1.65,1.6-1.73a.09.09,0,0,1,.12,0,14.88,14.88,0,0,1,4-3.23c1.84-1.19,3.89-2.16,5.43-3.81,3.25-3.49,3-8.59.79-12.65a21.73,21.73,0,0,0-9.66-8.93,22.05,22.05,0,0,0-5.71-2,14.31,14.31,0,0,0-2.43-.2c-.81,0-1.62,0-2.44,0h0c-5.09.07-9.91-1.83-14.57-3.89-5.84-2.59-11.59-5.42-17.31-8.29-12.14-6.08-24.15-12.46-36.08-19" transform="translate(-135.75 -90.06)"/><path class="cls-1" d="M568.82,361.4Z" transform="translate(-135.75 -90.06)"/><path class="cls-1" d="M565.81,363.2Z" transform="translate(-135.75 -90.06)"/><path class="cls-1" d="M568.82,361.4Z" transform="translate(-135.75 -90.06)"/><path class="cls-1" d="M565.82,363.2l3-1.8Z" transform="translate(-135.75 -90.06)"/><path class="cls-1" d="M552.37,385.52a10.71,10.71,0,0,0,.34-6.32.53.53,0,0,0,0-.13,31.08,31.08,0,0,0-1.57-4.84c.16,2.66,1,5.27.91,7.95a8.18,8.18,0,0,1-.88,3.9,8,8,0,0,1-2.4,2.5A5.68,5.68,0,0,0,552.37,385.52Z" transform="translate(-135.75 -90.06)"/><path class="cls-1" d="M552.7,379.13a.14.14,0,0,0,0-.06.53.53,0,0,1,0,.13S552.7,379.16,552.7,379.13Z" transform="translate(-135.75 -90.06)"/><path class="cls-1" d="M552.7,379.13s0,.05,0,.07S552.72,379.24,552.7,379.13Z" transform="translate(-135.75 -90.06)"/><path class="cls-1" d="M552.68,379.07a.14.14,0,0,1,0,.06C552.58,378.56,552.64,378.85,552.68,379.07Z" transform="translate(-135.75 -90.06)"/><path class="cls-1" d="M533.09,373.87a19.19,19.19,0,0,0,1.72,8.36,12.29,12.29,0,0,0,4.82,5.12,20.85,20.85,0,0,1-1.76-2s0,0-.1-.11-.1-.14,0-.07c-3-4.12-3.24-9.16-3.08-14.22a26.28,26.28,0,0,0-.51-7.62,17.11,17.11,0,0,0-2-5.35,33.43,33.43,0,0,1,1.21,6.85C533.7,367.8,533.05,370.89,533.09,373.87Z" transform="translate(-135.75 -90.06)"/><path class="cls-1" d="M537.87,385.36l-.14-.18,0,.07Z" transform="translate(-135.75 -90.06)"/><path class="cls-1" d="M380.86,230.86c-16.85-10.12-33.57-20.45-50-31.27l-4.08-2.69c-.37-.24.13-.05.27,0l4.49,2.72,20.1,12.23q21.16,12.87,42.3,25.81l2.08-1-1.31-.77c-15.35-9.13-30.38-18.9-45.72-28.06-7.46-4.46-15.17-8.59-22.38-13.53-5.06-3.46-9.85-8.12-12.72-13.92a36.36,36.36,0,0,0-1.83,6.92,31.37,31.37,0,0,0-.83,6.32,42.5,42.5,0,0,1-.16-8.44,26.36,26.36,0,0,1,1.57-8.7,5.62,5.62,0,0,0-1-3A18.31,18.31,0,0,0,309,171.2a26.32,26.32,0,0,0-6.66-4.18,8.86,8.86,0,0,1-.66,6.15c.45-2,.56-5.41-1.42-6.57-.74-.44-2,0-2.75.29a5.69,5.69,0,0,0-2.22,2,16.36,16.36,0,0,0-1.84,4.21c-.48,1.38-1,2.76-1.54,4.11A26.08,26.08,0,0,1,288,184a20.31,20.31,0,0,0,3.63-1,22.36,22.36,0,0,0,3.81-2.4,43.29,43.29,0,0,0,4.53-3.95,43.62,43.62,0,0,1-4.24,4.94,25,25,0,0,1-3.18,2.75,13.54,13.54,0,0,1-3.79,1.78c-3.43,1.14-6.77,2.44-10.27,3.35a39.75,39.75,0,0,0-8.24,2.77c-2.06,1.07-4.17,2.75-4.44,5.41a14.14,14.14,0,0,0,4.08,11.2,11.59,11.59,0,0,0,10.5,3.33c3.56-.71,5.47-3.64,7.88-6.26a8.63,8.63,0,0,1,3.86-2.68c1.86-.53,3.58-1.56,5.43-2.2a13.47,13.47,0,0,1,10.1.17c4.39,2,8.46,4.75,12.57,7.33q21.78,13.63,43.43,27.48l-12.92-7.52q-13.14-7.67-26.34-15.2c-4.36-2.49-8.68-5.08-13.1-7.42a26,26,0,0,0-6.37-2.7,11.35,11.35,0,0,0-6.59.85c4.16,1.65,7.9,4.35,11.81,6.57,2.18,1.24,4.48,2.15,6.71,3.25s4.42,2.27,6.61,3.46c6.46,3.51,12.86,7.18,19.24,10.86q16.05,9.26,32,18.7c5.86-3.55,12.34-6,18.39-8.81Q386.94,234.52,380.86,230.86Zm-93.33-27.52c-1.66,1.7-3.07,3.75-4.9,5.24-2.56,2.08-6.29,1-8.66-.87a12,12,0,0,0,3.54.61,25.4,25.4,0,0,0,2.89-.39c-.14,0,0,0,0,0a4.26,4.26,0,0,0,1.46-1c.95-.9,1.81-1.94,2.7-2.91a13.16,13.16,0,0,1,6-3.94c-.41.11.42-.15,0,0a8.09,8.09,0,0,1,2-.31A21.11,21.11,0,0,0,287.53,203.34Z" transform="translate(-135.75 -90.06)"/><path class="cls-1" d="M374.54,219.75q-12-7.55-24.13-14.81c-3.72-2.22-7.46-4.42-11.19-6.63s-7.75-4.51-11.45-7.09A36.77,36.77,0,0,1,320,184a29.5,29.5,0,0,1-3.29-4.87,13.74,13.74,0,0,1-1.22-4.35,8.19,8.19,0,0,0-3.32-5.18c-1.71-1.32-3.38-2.68-5.19-3.83a18.65,18.65,0,0,0-5.39-2.38,10.35,10.35,0,0,0-1.36-.19,10.2,10.2,0,0,1,1.35.19,18.53,18.53,0,0,1,5.39,2.38c1.81,1.15,3.49,2.51,5.19,3.83a8.24,8.24,0,0,1,3.33,5.18,13.47,13.47,0,0,0,1.21,4.35A30.19,30.19,0,0,0,320,184a36.53,36.53,0,0,0,7.81,7.26c3.69,2.58,7.59,4.82,11.44,7.09s7.47,4.41,11.2,6.63q12.13,7.26,24.13,14.81,12.3,7.74,24.79,15.14h0Q386.84,227.51,374.54,219.75Z" transform="translate(-135.75 -90.06)"/><path class="cls-1" d="M290.16,208.57a44.31,44.31,0,0,1-4,4.33,12.26,12.26,0,0,1-8.64,2.85,12.3,12.3,0,0,0,8.65-2.85,43,43,0,0,0,4-4.33c1.16-1.3,2.34-2.19,3.93-2.19C292.5,206.37,291.32,207.26,290.16,208.57Z" transform="translate(-135.75 -90.06)"/><path class="cls-1" d="M264.37,206.42c-1.66-3.51-2.52-8.36-.82-12,1.43-3.09,4.44-4.83,7.31-6a44.76,44.76,0,0,1,4.92-1.59l2.64-.7,1.63-.44c.26-.07,1.23-.16,1.06-.54a6.84,6.84,0,0,0,1.5-.27,3.32,3.32,0,0,0,1.63-1.27c.6-.76,1.24-1.48,1.84-2.24a20.51,20.51,0,0,0,2.47-4.14c1.26-2.77,2-5.82,3.28-8.55a11.31,11.31,0,0,1,2.3-3.3,8.23,8.23,0,0,1,1.27-1c.24-.15.85-.29.68-.67a9.5,9.5,0,0,0,1.17-.19,7.89,7.89,0,0,1,1.58-.31,7.72,7.72,0,0,1,1.36,0,7.72,7.72,0,0,0-1.36,0,7.62,7.62,0,0,0-1.58.31,9.66,9.66,0,0,1-1.18.19c.18.38-.44.52-.68.67a8.73,8.73,0,0,0-1.27,1,11.47,11.47,0,0,0-2.29,3.3c-1.31,2.73-2,5.78-3.29,8.55a20,20,0,0,1-2.46,4.14c-.6.76-1.24,1.48-1.85,2.24a3.34,3.34,0,0,1-1.62,1.27,7,7,0,0,1-1.5.27c.17.38-.81.47-1.06.54l-1.64.44-2.64.7a45.46,45.46,0,0,0-4.92,1.59c-2.86,1.15-5.88,2.89-7.31,6-1.7,3.69-.84,8.54.82,12a16.27,16.27,0,0,0,9.87,8.79,14.22,14.22,0,0,0,3.31.54,14.3,14.3,0,0,1-3.31-.54A16.26,16.26,0,0,1,264.37,206.42Z" transform="translate(-135.75 -90.06)"/><path class="cls-1" d="M358.22,241c-13.34-7.81-26.64-15.82-40.32-22.92-3.75-2-7.6-3.53-11.24-5.72-2.07-1.24-4.11-2.53-6.22-3.67a18.51,18.51,0,0,0-5.64-2.25,4.44,4.44,0,0,0-.71-.06,4.32,4.32,0,0,1,.7.06,18.56,18.56,0,0,1,5.65,2.25c2.11,1.14,4.15,2.43,6.21,3.67,3.64,2.19,7.5,3.77,11.25,5.72,13.67,7.1,27,15.11,40.32,22.92l13.41,7.89h0Q364.94,244.95,358.22,241Z" transform="translate(-135.75 -90.06)"/><path class="cls-1" d="M342.69,228.2c-6.38-3.68-12.78-7.35-19.24-10.86-2.19-1.19-4.38-2.36-6.61-3.46s-4.53-2-6.71-3.25c-3.91-2.22-7.65-4.92-11.81-6.57a11.35,11.35,0,0,1,6.59-.85,26,26,0,0,1,6.37,2.7c4.42,2.34,8.74,4.93,13.1,7.42q13.2,7.54,26.34,15.2l12.92,7.52Q342,222.24,320.21,208.57c-4.11-2.58-8.18-5.36-12.57-7.33a13.47,13.47,0,0,0-10.1-.17c-1.85.64-3.57,1.67-5.43,2.2a8.63,8.63,0,0,0-3.86,2.68c-2.41,2.62-4.32,5.55-7.88,6.26a11.59,11.59,0,0,1-10.5-3.33,14.14,14.14,0,0,1-4.08-11.2c.27-2.66,2.38-4.34,4.44-5.41a39.75,39.75,0,0,1,8.24-2.77c3.5-.91,6.84-2.21,10.27-3.35a13.54,13.54,0,0,0,3.79-1.78,25,25,0,0,0,3.18-2.75,43.62,43.62,0,0,0,4.24-4.94,43.29,43.29,0,0,1-4.53,3.95,22.36,22.36,0,0,1-3.81,2.4,20.31,20.31,0,0,1-3.63,1,26.08,26.08,0,0,0,3.93-6.82c.56-1.35,1.06-2.73,1.54-4.11a16.36,16.36,0,0,1,1.84-4.21,5.69,5.69,0,0,1,2.22-2c.73-.34,2-.73,2.75-.29,2,1.16,1.87,4.53,1.42,6.57a8.86,8.86,0,0,0,.66-6.15A26.32,26.32,0,0,1,309,171.2a18.31,18.31,0,0,1,2.64,2.27,5.62,5.62,0,0,1,1,3,26.36,26.36,0,0,0-1.57,8.7,42.5,42.5,0,0,0,.16,8.44,31.37,31.37,0,0,1,.83-6.32,36.36,36.36,0,0,1,1.83-6.92c2.87,5.8,7.66,10.46,12.72,13.92,7.21,4.94,14.92,9.07,22.38,13.53,15.34,9.16,30.37,18.93,45.72,28.06l1.31.77c1.14-.58,2.26-1.17,3.35-1.8q-12.49-7.38-24.79-15.14-12-7.55-24.13-14.81c-3.73-2.22-7.46-4.42-11.2-6.63s-7.75-4.51-11.44-7.09A36.53,36.53,0,0,1,320,184a30.19,30.19,0,0,1-3.3-4.87,13.47,13.47,0,0,1-1.21-4.35,8.24,8.24,0,0,0-3.33-5.18c-1.7-1.32-3.38-2.68-5.19-3.83a18.53,18.53,0,0,0-5.39-2.38,10.2,10.2,0,0,0-1.35-.19,7.72,7.72,0,0,0-1.36,0,7.89,7.89,0,0,0-1.58.31,9.5,9.5,0,0,1-1.17.19c.17.38-.44.52-.68.67a8.23,8.23,0,0,0-1.27,1,11.31,11.31,0,0,0-2.3,3.3c-1.31,2.73-2,5.78-3.28,8.55a20.51,20.51,0,0,1-2.47,4.14c-.6.76-1.24,1.48-1.84,2.24a3.32,3.32,0,0,1-1.63,1.27,6.84,6.84,0,0,1-1.5.27c.17.38-.8.47-1.06.54l-1.63.44-2.64.7a44.76,44.76,0,0,0-4.92,1.59c-2.87,1.15-5.88,2.89-7.31,6-1.7,3.69-.84,8.54.82,12a16.26,16.26,0,0,0,9.86,8.79,14.3,14.3,0,0,0,3.31.54,12.26,12.26,0,0,0,8.64-2.85,44.31,44.31,0,0,0,4-4.33c1.16-1.31,2.34-2.2,3.93-2.19a4.44,4.44,0,0,1,.71.06,18.51,18.51,0,0,1,5.64,2.25c2.11,1.14,4.15,2.43,6.22,3.67,3.64,2.19,7.49,3.77,11.24,5.72,13.68,7.1,27,15.11,40.32,22.92q6.72,3.93,13.42,7.89c1-.7,2-1.36,3-2Q358.72,237.5,342.69,228.2Z" transform="translate(-135.75 -90.06)"/><path class="cls-1" d="M284.58,204c-.89,1-1.75,2-2.7,2.91a4.26,4.26,0,0,1-1.46,1s-.16.05,0,0a25.4,25.4,0,0,1-2.89.39,12,12,0,0,1-3.54-.61c2.37,1.85,6.1,2.95,8.66.87,1.83-1.49,3.24-3.54,4.9-5.24a21.11,21.11,0,0,1,5-3.6,8.09,8.09,0,0,0-2,.31A13.16,13.16,0,0,0,284.58,204Z" transform="translate(-135.75 -90.06)"/><path class="cls-1" d="M290.56,200.05c.42-.15-.41.11,0,0Z" transform="translate(-135.75 -90.06)"/><path class="cls-1" d="M351.6,211.89l-20.1-12.23L327,196.94c-.14-.09-.64-.28-.27,0l4.08,2.69c16.47,10.82,33.19,21.15,50,31.27q6.08,3.64,12.21,7.23l.83-.39Q372.77,224.79,351.6,211.89Z" transform="translate(-135.75 -90.06)"/><path class="cls-1" d="M584.9,196.68v-.09c0,.44.08.8.1.95,0-.13,0-.41-.1-1l-.19-1.84c0,.51.12,1.24.19,1.84a.13.13,0,0,1,0-.06v.16Z" transform="translate(-135.75 -90.06)"/><path class="cls-1" d="M550.67,162.83a5.51,5.51,0,0,0,.9.1c-.17.39.58.6.83.77a7.87,7.87,0,0,1,1.26,1.06,11.55,11.55,0,0,1,2.27,3.41c1.26,2.73,2,5.73,3.25,8.47a20.34,20.34,0,0,0,2.46,4.06c.64.81,1.32,1.57,2,2.39a3.89,3.89,0,0,0,2.94,1.3c-.16.38,1.31.62,1.62.7l1.77.47c.92.23,1.83.47,2.74.73a34.63,34.63,0,0,1,5.62,2c3.25,1.57,6.18,4.18,6.6,8.26v-.06c-.45-4.05-3.36-6.64-6.6-8.2a35.49,35.49,0,0,0-5.61-2c-.91-.26-1.83-.5-2.75-.73l-1.77-.47c-.3-.08-1.78-.32-1.61-.7a3.91,3.91,0,0,1-2.95-1.3c-.63-.82-1.31-1.58-2-2.39a19.45,19.45,0,0,1-2.46-4.06c-1.27-2.74-2-5.74-3.25-8.47a11.75,11.75,0,0,0-2.27-3.41,7.94,7.94,0,0,0-1.27-1.06c-.25-.17-1-.38-.82-.77a5.39,5.39,0,0,1-.9-.1,8.07,8.07,0,0,0-1.6-.37,7.52,7.52,0,0,0-.82-.05,7.52,7.52,0,0,1,.82.05A8,8,0,0,1,550.67,162.83Z" transform="translate(-135.75 -90.06)"/><path class="cls-1" d="M584.89,196.59c.91,8.78-5.43,17.19-13.39,18.31-.52.07-1,.11-1.55.13.51,0,1-.06,1.55-.13,7.94-1.12,14.25-9.47,13.4-18.22Z" transform="translate(-135.75 -90.06)"/><path class="cls-1" d="M483.58,217.77c8.48-5.09,17-10.17,25.54-15.1,3.57-2,7.17-4,10.76-6L521,196c.06,0,0,.11,0,.15l-1.19.72Q499.24,209.43,478.68,222l-15.47,9.41-7.13,4.33-3.41,2.08-1.52.92-.82.5c1.89,1.09,3.77,2.2,5.67,3.28,2.25,1.29,4.5,2.56,6.76,3.83l3.49,2,1.61.9,1.46-.87c15.45-9.1,30.88-18.24,46.48-27,5-2.84,10.06-5.7,15.22-8.23,2.27-1.11,4.58-2,6.79-3.31,3.8-2.18,7.46-4.8,11.52-6.41a13.72,13.72,0,0,0-5.57-1,12.64,12.64,0,0,0-5.14,1.69c-3.46,1.8-6.85,3.74-10.25,5.68Q506.14,222.4,484,235.33c8.3-5.29,16.57-10.61,24.89-15.87,4.41-2.79,8.85-5.55,13.27-8.32s8.53-5.48,12.89-8c3.17-1.85,6.23-3.65,9.9-3.74a16.34,16.34,0,0,1,6.25,1.36c1,.39,1.91.82,2.84,1.28.77.38,1.59.48,2.37.84,3,1.38,4.57,4.72,7,6.8,3,2.51,7.35,2.57,10.74,1a13.66,13.66,0,0,0,6.91-7.82c1-2.69,1.45-6.36-.39-8.75-1.67-2.16-4.38-3.19-6.78-4-2.71-.9-5.5-1.47-8.23-2.31-1.1-.33-2.14-.87-3.23-1.23a32,32,0,0,1-6.42-2.33c-3.27-1.93-6.06-5.18-8.36-8.31a43.29,43.29,0,0,0,4.53,4,23.05,23.05,0,0,0,3.81,2.41,13.09,13.09,0,0,0,3.63,1,22.89,22.89,0,0,1-2.73-4.15c-1.42-2.81-2.28-5.85-3.44-8.78-1-2.45-2.67-4.54-5.26-4.62-2.83-.08-2.72,4.69-2.28,6.72a9,9,0,0,1-.65-6.15,27.89,27.89,0,0,0-7.13,4.54,8.88,8.88,0,0,0-2.59,2.52,7.36,7.36,0,0,0-.55,2.42,27,27,0,0,1,1.59,9,42.65,42.65,0,0,1-.17,8.15,32,32,0,0,0-.83-6.31,36.16,36.16,0,0,0-1.83-6.92,32.21,32.21,0,0,1-3.21,5,43.85,43.85,0,0,1-11.4,10.2c-8.22,5.31-16.77,10-25.12,15-7.64,4.61-15.21,9.34-22.78,14.1q-6.41,4-12.89,7.94-3.33,2-6.68,4L448.23,238l1.45.84C460.93,231.72,472.18,224.62,483.58,217.77Zm78-16a40.19,40.19,0,0,1,3.15,3.24,7.1,7.1,0,0,0,2.59,2.15c-.08,0,.23,0,.35.07a13.6,13.6,0,0,0,1.9.28,14.86,14.86,0,0,0,4.13-.57c-2.37,1.85-6.1,2.95-8.66.86-1.83-1.48-3.24-3.53-4.9-5.23a20.56,20.56,0,0,0-5-3.6A10.91,10.91,0,0,1,561.56,201.82Z" transform="translate(-135.75 -90.06)"/><path class="cls-1" d="M584.71,194.74l-.05-.47Z" transform="translate(-135.75 -90.06)"/><path class="cls-1" d="M489.58,208.83c5.43-3.3,10.89-6.54,16.36-9.77,3.57-2.11,7.16-4.18,10.67-6.4a54.81,54.81,0,0,0,6.75-4.85,36,36,0,0,0,5.28-5.8,22.33,22.33,0,0,0,2.75-4.49,15.26,15.26,0,0,0,.83-3.59,7.73,7.73,0,0,1,2.61-4.52,48.18,48.18,0,0,1,5.07-3.87,18.33,18.33,0,0,1,5.92-2.86,9.56,9.56,0,0,1,2.44-.27,9.69,9.69,0,0,0-2.45.27,18.43,18.43,0,0,0-5.92,2.86,48.06,48.06,0,0,0-5.06,3.87,7.73,7.73,0,0,0-2.61,4.52,15.26,15.26,0,0,1-.83,3.59,22.79,22.79,0,0,1-2.75,4.49,36.48,36.48,0,0,1-5.28,5.8,54.92,54.92,0,0,1-6.76,4.85c-3.51,2.22-7.09,4.29-10.66,6.4-5.47,3.23-10.93,6.47-16.36,9.77-14.89,9-29.56,18.51-44.59,27.3h0C460,227.34,474.69,217.88,489.58,208.83Z" transform="translate(-135.75 -90.06)"/><path class="cls-1" d="M584.67,194.4c0,.45.14,1.37.22,2.12h0C584.77,195.39,584.7,194.73,584.67,194.4Z" transform="translate(-135.75 -90.06)"/><path class="cls-1" d="M584.67,194.4c0-.32,0-.4,0,0Z" transform="translate(-135.75 -90.06)"/><path class="cls-1" d="M584.9,196.68h0C585,197.66,585.06,198.21,584.9,196.68Z" transform="translate(-135.75 -90.06)"/><path class="cls-1" d="M556.35,206.68a4.11,4.11,0,0,0-2.86-1,4.07,4.07,0,0,1,2.85,1c1.48,1.28,2.61,3,4,4.41A12.59,12.59,0,0,0,570,215a12.59,12.59,0,0,1-9.63-3.94C559,209.67,557.82,208,556.35,206.68Z" transform="translate(-135.75 -90.06)"/><polygon class="cls-1" points="449.15 106.52 449.15 106.53 449.15 106.53 449.15 106.52"/><path class="cls-1" d="M584.89,196.59v.09h0v-.1Z" transform="translate(-135.75 -90.06)"/><path class="cls-1" d="M473,249.93c14.57-8.58,29.14-17.19,43.84-25.49,5-2.84,10-5.7,15.2-8.25,2.47-1.22,5-2.23,7.38-3.62,4-2.29,7.85-5.25,12.21-6.56a7.31,7.31,0,0,1,1.86-.34,4.11,4.11,0,0,1,2.86,1c1.47,1.28,2.6,3,4,4.41A12.59,12.59,0,0,0,570,215c.51,0,1-.06,1.55-.13,8-1.12,14.3-9.53,13.39-18.31h0c-.42-4.08-3.35-6.69-6.6-8.26a34.63,34.63,0,0,0-5.62-2c-.91-.26-1.82-.5-2.74-.73l-1.77-.47c-.31-.08-1.78-.32-1.62-.7a3.89,3.89,0,0,1-2.94-1.3c-.64-.82-1.32-1.58-2-2.39a20.34,20.34,0,0,1-2.46-4.06c-1.27-2.74-2-5.74-3.25-8.47a11.55,11.55,0,0,0-2.27-3.41,7.87,7.87,0,0,0-1.26-1.06c-.25-.17-1-.38-.83-.77a5.51,5.51,0,0,1-.9-.1,8,8,0,0,0-1.59-.37,7.52,7.52,0,0,0-.82-.05,9.56,9.56,0,0,0-2.44.27,18.33,18.33,0,0,0-5.92,2.86,48.18,48.18,0,0,0-5.07,3.87,7.73,7.73,0,0,0-2.61,4.52,15.26,15.26,0,0,1-.83,3.59,22.33,22.33,0,0,1-2.75,4.49,36,36,0,0,1-5.28,5.8,54.81,54.81,0,0,1-6.75,4.85c-3.51,2.22-7.1,4.3-10.67,6.4-5.47,3.23-10.93,6.47-16.36,9.77-13.69,8.32-27.2,17-41,25.14a20.3,20.3,0,0,1,3.75,1.59l6-3.61q6.48-3.91,12.89-7.94c7.57-4.76,15.14-9.49,22.78-14.1,8.35-5,16.9-9.74,25.12-15a43.85,43.85,0,0,0,11.4-10.2,32.21,32.21,0,0,0,3.21-5,36.16,36.16,0,0,1,1.83,6.92,32,32,0,0,1,.83,6.31,42.65,42.65,0,0,0,.17-8.15,27,27,0,0,0-1.59-9,7.36,7.36,0,0,1,.55-2.42,8.88,8.88,0,0,1,2.59-2.52,27.89,27.89,0,0,1,7.13-4.54,9,9,0,0,0,.65,6.15c-.44-2-.55-6.8,2.28-6.72,2.59.08,4.3,2.17,5.26,4.62,1.16,2.93,2,6,3.44,8.78a22.89,22.89,0,0,0,2.73,4.15,13.09,13.09,0,0,1-3.63-1,23.05,23.05,0,0,1-3.81-2.41,42.29,42.29,0,0,1-4.53-4c2.3,3.13,5.09,6.38,8.36,8.31a32,32,0,0,0,6.42,2.33c1.09.36,2.13.9,3.23,1.23,2.73.84,5.52,1.41,8.23,2.31,2.4.79,5.11,1.82,6.78,4,1.84,2.39,1.35,6.06.39,8.75a13.66,13.66,0,0,1-6.91,7.82c-3.39,1.56-7.75,1.5-10.74-1-2.47-2.08-4.08-5.42-7-6.8-.78-.36-1.6-.46-2.37-.84-.93-.46-1.88-.89-2.84-1.28a16.34,16.34,0,0,0-6.25-1.36c-3.67.09-6.73,1.89-9.9,3.74-4.36,2.53-8.6,5.33-12.89,8s-8.86,5.53-13.27,8.32c-8.32,5.26-16.59,10.58-24.89,15.87q22.14-12.9,44.36-25.64c3.4-1.94,6.79-3.88,10.25-5.68a12.64,12.64,0,0,1,5.14-1.69,13.72,13.72,0,0,1,5.57,1c-4.06,1.61-7.72,4.23-11.52,6.41-2.21,1.27-4.52,2.2-6.79,3.31-5.16,2.53-10.2,5.39-15.22,8.23-15.58,8.79-31,17.92-46.42,27a20.31,20.31,0,0,0,3.62,1.64" transform="translate(-135.75 -90.06)"/><path class="cls-1" d="M584.89,196.58v-.06h0v.06Z" transform="translate(-135.75 -90.06)"/><path class="cls-1" d="M565,207.85c2.56,2.09,6.29,1,8.66-.86a14.86,14.86,0,0,1-4.13.57,13.6,13.6,0,0,1-1.9-.28c-.12,0-.43-.05-.35-.07a7.1,7.1,0,0,1-2.59-2.15,40.19,40.19,0,0,0-3.15-3.24,10.91,10.91,0,0,0-6.48-2.8,20.56,20.56,0,0,1,5,3.6C561.78,204.32,563.19,206.37,565,207.85Z" transform="translate(-135.75 -90.06)"/><path class="cls-1" d="M478.68,222c21.18-12.95-10.26,6.24,0,0Z" transform="translate(-135.75 -90.06)"/><path class="cls-1" d="M452.67,237.8l3.41-2.08,7.13-4.33L478.68,222c-10.26,6.24,21.18-12.95,0,0q20.55-12.55,41.09-25.12l1.19-.72c.06,0,.1-.18,0-.15l-1.12.63c-3.59,2-7.19,4-10.76,6-8.56,4.93-17.06,10-25.54,15.1-11.4,6.85-22.65,13.95-33.9,21.08l.65.37.82-.5Z" transform="translate(-135.75 -90.06)"/><path class="cls-1" d="M299.87,342c-.79,0-1.59,0-2.39,0C298.28,342,299.08,342,299.87,342Z" transform="translate(-135.75 -90.06)"/><path class="cls-1" d="M340,329.18c6.84-3,13.71-5.84,20.47-9l12.39-5.83c-5.57,2.83-11.11,5.77-16.73,8.47-4.55,2.18-9.13,4.28-13.7,6.42s-9.39,4.13-14.1,6.15c-4.37,1.87-8.67,3.89-13,5.81a54.4,54.4,0,0,1-8.8,3.24,30.57,30.57,0,0,1-5.19.87c-1.6.1-3.2-.08-4.79,0a18.36,18.36,0,0,0-9.86,4.11c-2.6,2-5.19,4.93-5.89,8.44a6.45,6.45,0,0,0,.49,4.2c.87,1.68,2.39,2.53,3.87,3.44-.84-2.38-.7-4.63,1.15-6.36a4.53,4.53,0,0,0-.7,4.18,12.11,12.11,0,0,0,2.84,4.12c1.1,1.21,2.55,2,3.71,3.17a12.43,12.43,0,0,1,2.37,3.21,17.7,17.7,0,0,0,.85-6.82,15.67,15.67,0,0,0-1.06-5.23,14.67,14.67,0,0,1,1.92,4.77,16.25,16.25,0,0,1,.39,6.48,70.1,70.1,0,0,1-2,8.84c-.55,2.11-1,4.46,0,6.48,1.62,3.13,5.83,4.47,8.84,4.88,6.31.86,11-3.89,13.51-9.77a25.86,25.86,0,0,0,1.95-7.2c.33-2.94-.63-5.8-.19-8.74.72-4.93,3.52-8.5,7.07-11.44a63,63,0,0,1,12.42-7.64c17.61-9.48,35.22-19,52.75-28.61l-17.33-10.21,1.37.81Q357.69,320.08,340,329.18Zm-42,58.95a7.77,7.77,0,0,1-1.26-4c-.13-2.91.9-5.66,1.92-8.28-.28,4.66-2.39,9.72,1.26,13.46a7.28,7.28,0,0,0,1.11.88A5.56,5.56,0,0,1,298,388.13Zm18.4-21.41c-.25,2.89.32,5.83.28,8.73a18.85,18.85,0,0,1-1.85,8.6,12.32,12.32,0,0,1-4.69,4.88,16.61,16.61,0,0,0,4.9-10.61,63,63,0,0,0,0-7.4,22.55,22.55,0,0,1,.76-6.75h0a15.38,15.38,0,0,1,1.83-4.6A33.67,33.67,0,0,0,316.43,366.72Z" transform="translate(-135.75 -90.06)"/><path class="cls-1" d="M289.6,372.81h0a.09.09,0,0,1,.11,0A.08.08,0,0,0,289.6,372.81Z" transform="translate(-135.75 -90.06)"/><path class="cls-1" d="M394.76,322v.11l.09,0,0-.05Z" transform="translate(-135.75 -90.06)"/><path class="cls-1" d="M394.76,322l-1-.59-1.59-.93-.8-.47-.69.4Q378,327.71,365.23,335l-13.67,7.74c-4.37,2.47-8.7,5.11-13.16,7.41a58.51,58.51,0,0,0-11.89,7.81c-3.27,2.86-6.07,6.84-5.83,11.65,3.82-3.68,7.34-7.67,11.52-10.88a151.31,151.31,0,0,1,15.58-10.17c8.13-4.78,16.4-9.26,24.64-13.81q6.69-3.7,13.34-7.49l5.87-3.38,1.82-1.06c.36-.21.88-.67,1.31-.69Z" transform="translate(-135.75 -90.06)"/><path class="cls-1" d="M301.07,342a27.28,27.28,0,0,0,5-.84,38.8,38.8,0,0,0,5.1-1.74c5.13-2.11,10.15-4.56,15.15-7,7.52-3.69,15-7.53,22.41-11.43q6.51-3.44,13-7c2.27-1.23,4.53-2.46,6.8-3.71l1.93-1.06c.4-.22,1-.74,1.46-.67-.45-.07-1.06.45-1.47.67l-1.93,1.06c-2.26,1.25-4.53,2.48-6.8,3.71q-6.48,3.51-13,7c-7.43,3.9-14.88,7.74-22.4,11.43-5,2.45-10,4.9-15.16,7a38.67,38.67,0,0,1-5.09,1.74,27.28,27.28,0,0,1-5,.84l-1.2,0Z" transform="translate(-135.75 -90.06)"/><path class="cls-1" d="M291.16,387.19a12.28,12.28,0,0,1,0-3.53c.06-.43.62-2.35.38-2.53.57-1.16,1.23-3.09.83-4.4a8.44,8.44,0,0,0-1.1-2.28c-.18-.26-1.21-1.6-1.58-1.68.38.09,1.4,1.42,1.58,1.68a8.41,8.41,0,0,1,1.09,2.28c.41,1.31-.25,3.24-.82,4.4.24.18-.33,2.1-.39,2.53a11.93,11.93,0,0,0,0,3.53,9.12,9.12,0,0,0,2.58,5.07,16.83,16.83,0,0,0,11.4,4.39h0a16.78,16.78,0,0,1-11.39-4.39A9.14,9.14,0,0,1,291.16,387.19Z" transform="translate(-135.75 -90.06)"/><path class="cls-1" d="M285.43,369.49c-1.82-1.17-3.83-2.11-5.34-3.75a10.12,10.12,0,0,1-1.78-10.32,19.58,19.58,0,0,1,7.17-9.14A21.56,21.56,0,0,1,296.29,342c.39,0,.79,0,1.19,0-.4,0-.8,0-1.2,0a21.53,21.53,0,0,0-10.8,4.29,19.51,19.51,0,0,0-7.17,9.14,10.14,10.14,0,0,0,1.77,10.32c1.52,1.64,3.53,2.58,5.34,3.75a15.46,15.46,0,0,1,4.15,3.28l0,0h0l0,0A15.42,15.42,0,0,0,285.43,369.49Z" transform="translate(-135.75 -90.06)"/><path class="cls-1" d="M391.63,323.84l-5.87,3.38q-6.64,3.79-13.34,7.49c-8.24,4.55-16.51,9-24.64,13.81a151.31,151.31,0,0,0-15.58,10.17c-4.18,3.21-7.7,7.2-11.52,10.88-.24-4.81,2.56-8.79,5.83-11.65a58.51,58.51,0,0,1,11.89-7.81c4.46-2.3,8.79-4.94,13.16-7.41L365.23,335Q377.43,328,389.55,321l-.25-.25q-25.43,14-51,27.65a63,63,0,0,0-12.42,7.64c-3.55,2.94-6.35,6.51-7.07,11.44-.44,2.94.52,5.8.19,8.74a25.86,25.86,0,0,1-1.95,7.2c-2.48,5.88-7.2,10.63-13.51,9.77-3-.41-7.22-1.75-8.84-4.88-1-2-.59-4.37,0-6.48a70.1,70.1,0,0,0,2-8.84,16.25,16.25,0,0,0-.39-6.48,14.67,14.67,0,0,0-1.92-4.77,15.67,15.67,0,0,1,1.06,5.23,17.7,17.7,0,0,1-.85,6.82,12.43,12.43,0,0,0-2.37-3.21c-1.16-1.16-2.61-2-3.71-3.17a12.11,12.11,0,0,1-2.84-4.12,4.53,4.53,0,0,1,.7-4.18c-1.85,1.73-2,4-1.15,6.36-1.48-.91-3-1.76-3.87-3.44a6.45,6.45,0,0,1-.49-4.2c.7-3.51,3.29-6.43,5.89-8.44a18.36,18.36,0,0,1,9.86-4.11c1.59-.09,3.19.09,4.79,0a30.57,30.57,0,0,0,5.19-.87,54.4,54.4,0,0,0,8.8-3.24c4.35-1.92,8.65-3.94,13-5.81,4.71-2,9.45-4,14.1-6.15s9.15-4.24,13.7-6.42c5.62-2.7,11.16-5.64,16.73-8.47l-12.39,5.83c-6.76,3.17-13.63,6.05-20.47,9q17.52-9,34.75-18.59a34.12,34.12,0,0,0-4.21-1.42l-.12.08-1.93,1.06c-2.27,1.25-4.53,2.48-6.8,3.71q-6.5,3.51-13,7c-7.43,3.9-14.89,7.74-22.41,11.43-5,2.45-10,4.9-15.15,7a38.8,38.8,0,0,1-5.1,1.74,27.28,27.28,0,0,1-5,.84l-1.2,0c-.79,0-1.59,0-2.39,0-.4,0-.8,0-1.19,0a21.56,21.56,0,0,0-10.81,4.29,19.58,19.58,0,0,0-7.17,9.14,10.12,10.12,0,0,0,1.78,10.32c1.51,1.64,3.52,2.58,5.34,3.75a15.42,15.42,0,0,1,4.14,3.28l0,0a.08.08,0,0,1,.11,0c.37.08,1.4,1.42,1.58,1.68a8.44,8.44,0,0,1,1.1,2.28c.4,1.31-.26,3.24-.83,4.4.24.18-.32,2.1-.38,2.53a12.28,12.28,0,0,0,0,3.53,9.14,9.14,0,0,0,2.59,5.07,16.78,16.78,0,0,0,11.39,4.39c8.5,0,14.08-8.09,16.19-16.28a24.11,24.11,0,0,0,.8-4.78,15.19,15.19,0,0,0-.08-2.43c0-.33-.1-.37.14-.61l.62-.6.73-.7c2.5-2.42,4.81-5.09,7.41-7.38,5.73-5.05,12.34-8.94,18.8-12.73,8.06-4.72,16.25-9.15,24.4-13.66q10.05-5.57,20-11.36c-.7-.84-1.42-1.67-2.15-2.49Z" transform="translate(-135.75 -90.06)"/><path class="cls-1" d="M300,389.27c-3.65-3.74-1.54-8.8-1.26-13.46-1,2.62-2.05,5.37-1.92,8.28a7.77,7.77,0,0,0,1.26,4,5.56,5.56,0,0,0,3,2,7.28,7.28,0,0,1-1.11-.88C300.14,389.49,299.75,389.07,300,389.27Z" transform="translate(-135.75 -90.06)"/><path class="cls-1" d="M300,389.27c-.2-.2.19.22,0,0Z" transform="translate(-135.75 -90.06)"/><path class="cls-1" d="M315.85,364.17c.39-1.46-.2.74,0,0Z" transform="translate(-135.75 -90.06)"/><path class="cls-1" d="M315.09,370.92a63,63,0,0,1,0,7.4,16.61,16.61,0,0,1-4.9,10.61,12.32,12.32,0,0,0,4.69-4.88,18.85,18.85,0,0,0,1.85-8.6c0-2.9-.53-5.84-.28-8.73a33.67,33.67,0,0,1,1.25-7.15,15.38,15.38,0,0,0-1.83,4.6A22.55,22.55,0,0,0,315.09,370.92Z" transform="translate(-135.75 -90.06)"/><path class="cls-2" d="M509.23,242c-12.75,2.6-27.29,8.24-37.12,14.77.14,1.53.25,3.06.32,4.58l187.32-23.4c25.52-7.71,41.41-21.26,46.93-36.2Z" transform="translate(-135.75 -90.06)"/><path class="cls-2" d="M502.11,259.47c-12.19,1.43-21.59,4.43-29.64,8.49,0,1.83-.11,3.65-.23,5.46l157.41-3.36c25.64-7,44.71-16.53,52.7-31.73Z" transform="translate(-135.75 -90.06)"/><path class="cls-2" d="M486.25,292a102,102,0,0,0-16.19-.07c-.56,3.64-1.15,7.24-1.71,10.79l83.42,19a234.06,234.06,0,0,0,41.75-7,140,140,0,0,0,30.63-12.19Z" transform="translate(-135.75 -90.06)"/><path class="cls-2" d="M474,287.92,594.74,298c26.1-4.22,51-12.72,65.74-25.83L480,275.7" transform="translate(-135.75 -90.06)"/><path class="cls-2" d="M333.19,242c12.76,2.6,27.3,8.24,37.13,14.77-.15,1.53-.26,3.06-.32,4.58l-187.33-23.4c-25.52-7.71-41.41-21.26-46.92-36.2Z" transform="translate(-135.75 -90.06)"/><path class="cls-2" d="M365.65,273.33l-152.88-3.27c-25.64-7-44.71-16.53-52.7-31.73l180.25,21.14A89.56,89.56,0,0,1,365.65,266" transform="translate(-135.75 -90.06)"/><path class="cls-2" d="M370.76,303.2l-80.58,18.55a233.9,233.9,0,0,1-41.75-7,139.75,139.75,0,0,1-30.63-12.19L355.69,292a108.37,108.37,0,0,1,12.62-.29" transform="translate(-135.75 -90.06)"/><path class="cls-2" d="M368.39,288.6,247.68,298c-26.1-4.22-51-12.72-65.73-25.83l169.58,3.34c1.39,0,11.52,0,12.93.07" transform="translate(-135.75 -90.06)"/><path class="cls-2" d="M297.67,323.08l73.74-16.71,17.2,31.87S367.16,321.75,297.67,323.08Z" transform="translate(-135.75 -90.06)"/><path class="cls-3" d="M441.73,274.92l.81-3,1.28.65Z" transform="translate(-135.75 -90.06)"/><path class="cls-3" d="M445.05,269.39c.72-.93.72-.93,1.78-.21C446,269.9,445.76,269.94,445.05,269.39Z" transform="translate(-135.75 -90.06)"/><path class="cls-3" d="M448.16,211.23s0,0,0,0,0,0,0,0Z" transform="translate(-135.75 -90.06)"/><path class="cls-3" d="M397.53,271.27a1,1,0,0,0,1.1.94,1,1,0,0,0,.92-1.13,1,1,0,1,0-2,.19Z" transform="translate(-135.75 -90.06)"/><path class="cls-3" d="M396.72,270.8a1.06,1.06,0,0,0,2-.72,1.06,1.06,0,0,0-2,.72Z" transform="translate(-135.75 -90.06)"/><path class="cls-3" d="M450.34,274.48a1,1,0,1,1-2-.2,1,1,0,0,1,1.1-.95A1.05,1.05,0,0,1,450.34,274.48Z" transform="translate(-135.75 -90.06)"/><path class="cls-3" d="M451,272a1.06,1.06,0,0,1-2-.59,1.07,1.07,0,0,1,1.32-.72A1.06,1.06,0,0,1,451,272Z" transform="translate(-135.75 -90.06)"/><path class="cls-2" d="M548.14,324.22,474.4,307.51l-17.2,31.87S478.65,322.89,548.14,324.22Z" transform="translate(-135.75 -90.06)"/><path class="cls-4" d="M501.1,225.51c0,16.38-34.81,29.66-77.76,29.66s-77.75-13.28-77.75-29.66,34.81-29.66,77.75-29.66S501.1,209.13,501.1,225.51Z" transform="translate(-135.75 -90.06)"/><polygon class="cls-5" points="339.8 267.38 232.81 268.85 226.75 119.41 345.77 119.41 339.8 267.38"/><path class="cls-4" d="M426,314.38s8.14-3.74,8.64-3.77-.27,2.57-1.15,2.81a31.37,31.37,0,0,1-7.49,1c-.13,0-.09.11,0,0Z" transform="translate(-135.75 -90.06)"/><path class="cls-4" d="M436.56,313.55s.73-2-.55-5.44a24.91,24.91,0,0,0-2.17-4.6h0c7.47,6.09,5.32,9.08,2.72,10Z" transform="translate(-135.75 -90.06)"/><path class="cls-4" d="M420.1,314.38s-8.14-3.76-8.64-3.79.29,2.58,1.15,2.82a31.37,31.37,0,0,0,7.49,1c.14,0,.1.1,0,0Z" transform="translate(-135.75 -90.06)"/><path class="cls-4" d="M409.5,313.54s-.72-2,.56-5.45a24.5,24.5,0,0,1,2.17-4.59h0c-7.47,6.09-5.33,9.08-2.73,10Z" transform="translate(-135.75 -90.06)"/><path class="cls-6" d="M482.32,247.52c-.76,8.27,0,16.86-2.05,24.92-.34,1.36-2,6.12-1.94,7.51a40.92,40.92,0,0,0,.12,4.7c.24,2.11.83,4.17,1.11,6.28a67.69,67.69,0,0,1,.61,7.12c.31,10.18-2.54,17.09-5.38,27-1.34,4.73-5.68,12.29-10.32,19.77a22.28,22.28,0,0,1,7.28-1.76c8.17-16.23,14.56-32.52,13-48.93-.39-4.13-1.58-8-1.67-11.87-.06-2.18-.08-4.36-.2-6.53a12.51,12.51,0,0,1-.2-3c.9-4.13,1.62-8.29,2.19-12.46.56-4,1-8.05,1.18-12.09A9.56,9.56,0,0,1,482.32,247.52Z" transform="translate(-135.75 -90.06)"/><path class="cls-4" d="M361.76,271.53c.49,2.27,0,4.54-.1,6.85,0,1.81,0,3.63-.21,5.43-.15,1.63-.7,3.53-1,5.43a45,45,0,0,0-.81,11.64,120.3,120.3,0,0,0,5.68,30.4,28,28,0,0,0,3.26,6.64,16.11,16.11,0,0,1,8.43-.58c-6.12-11.61-11.13-23.84-11.72-35.43-.27-5-.92-6.75-.17-11.7.31-2,.94-4,1.06-6,.1-1.63.07-3.27.07-4.91a120.12,120.12,0,0,1-3.75-17.52c-.74-5.93.48-8,0-14a16.55,16.55,0,0,0-2.48,2.47l-.94,1.44a123.78,123.78,0,0,0,1.52,13.69Q361.12,268.47,361.76,271.53Z" transform="translate(-135.75 -90.06)"/><path class="cls-4" d="M437.81,312.58c2.44.38,4.9,2.23,7.35,2.59-1.33-1-2.67-3.56-4-4.61l-3.87-3.11C437.47,309.15,437.64,310.87,437.81,312.58Z" transform="translate(-135.75 -90.06)"/><path class="cls-4" d="M408.24,312.57c-2.44.38-4.91,2.59-7.35,2.95,1.32-1,2.67-3.92,4-5s2.59-2.07,3.88-3.12Z" transform="translate(-135.75 -90.06)"/><path class="cls-4" d="M423.14,318.77c4.41.68,11.81-5.88,11.8-5.88-3.83.36-7.64.69-11.46,1q-6.47-.47-12.92-1S418.72,318.12,423.14,318.77Z" transform="translate(-135.75 -90.06)"/><path class="cls-4" d="M430,316.54c2.2-1,4.4-2,6.59-3l.88-1.14-.7-1.05-5.32,1.57C430.93,314.13,430.46,315.34,430,316.54Z" transform="translate(-135.75 -90.06)"/><path class="cls-4" d="M416.94,316.48c-2.48-1-5-2-7.44-2.94-.26-.5-.53-1-.8-1.5l.69-1.05c1.77.52,3.55,1.05,5.33,1.56Z" transform="translate(-135.75 -90.06)"/><path d="M479.72,311.88a3.56,3.56,0,0,0,.82,1.09,6,6,0,0,0,5.82,1.14,29.85,29.85,0,0,1-1.47,4.46c-2.65,6.14-9.34,11.26-9.34,11.25Q477.67,320.87,479.72,311.88Z" transform="translate(-135.75 -90.06)"/><path class="cls-4" d="M361.62,313.87a15.33,15.33,0,0,0,3-1.73q2,8.78,4.06,17.54s-6.69-5.14-9.33-11.29a27.52,27.52,0,0,1-1.33-3.93A7.75,7.75,0,0,0,361.62,313.87Z" transform="translate(-135.75 -90.06)"/><path class="cls-6" d="M369.27,337.69c-.51-.76-.46-3.64-.61-1.62,0,.42-.07,1.07-.11,1.86Z" transform="translate(-135.75 -90.06)"/><path class="cls-4" d="M427.16,297.84c0-3,.52-6.14.66-9.2.17-3.62.66-7.22.89-10.84.2-3.06.58-6.1,1-9.14a14.76,14.76,0,0,1,1.74-5.83.56.56,0,0,0-.65-.8c-2,.73-2.82,2.69-3.49,4.54a33.43,33.43,0,0,0-1.62,9.35,74.52,74.52,0,0,0,.19,11.28c.15,1.89.25,3.78.43,5.67.16,1.68.6,3.29.73,5,0,.07.11.07.11,0Z" transform="translate(-135.75 -90.06)"/><path class="cls-3" d="M453.6,205.36s0,0,0,0a0,0,0,0,0,0,0Z" transform="translate(-135.75 -90.06)"/><path class="cls-6" d="M363.82,275c0-3.49-1.37-6.87-2.24-10.24a82.71,82.71,0,0,1-2.35-14.5,79.54,79.54,0,0,1,.55-13.36c.42-4.41,2.23-9,1.92-13.38-.13-1.88-.65-2.94-1.81-1.12-2.3,3.56-4.1,3.5-4.15,4.42-.25,4.73-.83,17.37-.42,22.07a98.25,98.25,0,0,0,2.48,14.94c1,3.92,2,8.47,4.73,11.61a.74.74,0,0,0,1.29-.44Z" transform="translate(-135.75 -90.06)"/><path class="cls-6" d="M481.46,275.51c5.41-6.29,6.81-20.33,7.43-28.18.41-5.11,1.68-16.37,1.16-21.47-.42-4.13-2.74.07-5-3.44-1.17-1.81-3.46-.67-3.6,1.22-.27,3.85,1.23,7.9,1.83,11.7a97.84,97.84,0,0,1,1.09,13.36,69.37,69.37,0,0,1-1.66,14.48c-.79,3.94-2.53,7.85-2.52,11.88a.74.74,0,0,0,1.28.45Z" transform="translate(-135.75 -90.06)"/><path class="cls-6" d="M481.44,210.87c-3-2.7-1.12-4.13-1.12-4.13s.76,1.18.72.68c-.85.32-1.38-1.88-2.45-1.82-2.56.15,1.33,5.55-1.23,5.74L474,209c-8.89.43-17.4,3-26.18,4.37-.95.14-1.88.25-2.83.36-6,.35-11.94.6-17.93.62l-4.09,0-4.09,0c-6,0-12-.26-17.94-.6-.94-.11-1.88-.22-2.82-.37-8.78-1.33-17.31-3.92-26.18-4.35l-3.42,2.32q-3.84-.28-7.68-.53c-1.08-.06-1.87-2.2-2.73-2.53-1.18,2.07-.59,5.57-.58,5.57.28,1,.56,2.09.85,3.13q-1.36,6.15-2.72,12.29l.66,8.45q2.14,16.16,4.46,32.31s7-12,8.55-17.37-3.85-11.16-4.07-17.24S376.4,215.89,383.94,218s21.59,9.68,55,10.86c0,0,14.56-9.06,21.62-11.54,7.07-2.32,19.13,11.2,19.16,16.84s1,8.07,1.33,15.1c.19,3.69-2,11.67.2,15.21.33.53-.18,2.93.13,3.41,1.58,2.39,2.22,2.72,2.22,2.72q3.08-16.47,5.94-32.92s.83-9.64.34-12.66S486,213.92,481.44,210.87Z" transform="translate(-135.75 -90.06)"/><path class="cls-4" d="M377.57,306.66c1,2.14,1.38,10.24,2.09,15.35q4,4.08,8.08,8.17-4.08,6.45-8.24,12.87-5.94-.29-11.86-.64c-2.41-15.82-4.72-28.26-6.93-44.1q0-18.46,0-36.94,2.42-3.37,4.81-6.76c1.59,15.23,4,38.39,5,41.38S376.55,304.53,377.57,306.66Z" transform="translate(-135.75 -90.06)"/><path d="M422.66,391.73c18-4,48.07-7.81,52.89-16.26,5.82-10.22,8.54-61,8.72-61-10.64,10.29-21.63,18-33,28,0,0-3.69,6.26-8.24,7.57s-13.47-2.47-13.46-2.48c-3,.27-3.92.28-6.95.55a428,428,0,0,0,0,43.58" transform="translate(-135.75 -90.06)"/><path class="cls-4" d="M422.54,391.73" transform="translate(-135.75 -90.06)"/><path class="cls-6" d="M379.93,343.52c1-2.22.49-5.49.26-9.5C379.3,337.85,379.93,343.51,379.93,343.52Z" transform="translate(-135.75 -90.06)"/><path class="cls-4" d="M423.38,317.54,417,315.42c-4.3-.34-8.58-.7-12.87-1.09l.45-2.86c-18.45,16-18.64,2.3-18.64,2.3-5.85,7.62-6.09,14.65-5.75,20.25.7-3,2.33-4.89,5.94-2,14.06,11.4,30.22-3.5,37.25-3.67Z" transform="translate(-135.75 -90.06)"/><path class="cls-4" d="M422.71,317.54l6.38-2.12c4.3-.34,8.58-.7,12.87-1.09l-.45-2.86c18.45,16,18.64,2.3,18.64,2.3,5.85,7.62,6.09,14.65,5.76,20.25-.7-3-2.34-4.89-6-2-14.06,11.4-30.21-3.5-37.25-3.67Z" transform="translate(-135.75 -90.06)"/><path class="cls-4" d="M467.37,306.67c-1.28,1.83-1.39,10.23-2.09,15.34q-4,4.11-8.08,8.17,4.08,6.45,8.24,12.88,5.93-.29,11.85-.64c2.42-15.82,4.73-28.27,6.94-44.1q0-18.48,0-36.94c-1.62-2.25-3.22-4.51-4.81-6.76-1.6,15.23-3.89,38.7-5,42.3S468.64,304.85,467.37,306.67Z" transform="translate(-135.75 -90.06)"/><path class="cls-6" d="M373.51,215.08q-8.72,18.45-17.89,36.76s-2.41-28.6-1.86-37.9,12.77-15.6,12.76-15.62Q370,206.71,373.51,215.08Z" transform="translate(-135.75 -90.06)"/><path class="cls-3" d="M387,280l6.73.35,6-1.5-4.49-3.72c-2.57-.17-5.15-.34-7.73-.53q-6.48,1.8-13,3.52Q380.8,279.08,387,280Z" transform="translate(-135.75 -90.06)"/><path class="cls-6" d="M382.87,276.83c3.26-3.43,6.9-5,11.94-3.21a7.83,7.83,0,0,1,4.27,2.87c.62,1,4.44.85,5.7,1.08s0-.13-1-.77a15.48,15.48,0,0,0-2.15-1c-.8-.35-1-1-1.73-1.65a10.28,10.28,0,0,0-5.86-2.21c-4.78-.45-10.53.66-13.16,4.38-.06.09.09.2.18.13Z" transform="translate(-135.75 -90.06)"/><path class="cls-6" d="M390.33,272.53l1.13.17a4.53,4.53,0,0,0,1,0l1.08-.09a.61.61,0,0,0,.19,0,3.79,3.79,0,0,0,.67.06,3.39,3.39,0,0,1,1.06,2.53,3.33,3.33,0,0,1-3.6,3.15,3.51,3.51,0,0,1-3.36-3.56,3.13,3.13,0,0,1,.73-1.91A3.39,3.39,0,0,0,390.33,272.53Z" transform="translate(-135.75 -90.06)"/><path class="cls-6" d="M383.88,277.26a24.53,24.53,0,0,0,6,1.42,21.78,21.78,0,0,0,5.53,0c1.32-.19,2.61-.52,4-.61a12.19,12.19,0,0,0,2.77-.93c.68-.26-1.1-1.17-1.76-.91s-.86.8-1.62.89c-1.05.13-2.07.34-3.09.53a21,21,0,0,1-5.77.18,36.07,36.07,0,0,1-5.2-.67c-.15,0-.91,0-.76.08Z" transform="translate(-135.75 -90.06)"/><path class="cls-3" d="M388,275.13l2.67.17s1.18-1,0-1.27a10.07,10.07,0,0,0-2.66-.16C388.05,274.29,388,274.71,388,275.13Z" transform="translate(-135.75 -90.06)"/><path class="cls-6" d="M381.3,276.09a10.61,10.61,0,0,1,3.52-2.5c1.84-.82,4-2.17,6.06-2.4a21.47,21.47,0,0,1,5.28.06,23,23,0,0,1,4.07,1.09,24.59,24.59,0,0,1,3,2.45s-2.35-5-5.81-5.59c-1.82-.33-1.9-1.54-3.53-1.3-7.62,1.12-13.94,2.75-16.06,8.2.85.27,2-.12,2.8.14,0,.16.5,0,.66-.15Z" transform="translate(-135.75 -90.06)"/><path class="cls-6" d="M382.81,276c-1.4-.46.09-1.4-1.31-1.14-1.13.21-5.89,1.63-6.16,2.85a38.72,38.72,0,0,1,9.71.37c.55.12-1.68-1.89-2.24-2.08Z" transform="translate(-135.75 -90.06)"/><path class="cls-6" d="M386.51,271.08c3.8.95,8.38.28,12.19,1.05a12.49,12.49,0,0,1,2.77,1c.54.26,1,.58,1.56.88.87.53.92-.15.38-.45-1.33-.77-2.48-1.67-4.08-1.79-.3,0-.32.37-.07.46,1.56.63,2.67,1.78,4.05,2.68a1.46,1.46,0,0,0,1.93-.29.88.88,0,0,0,0-1.27,14.22,14.22,0,0,0-8.29-3c-3.26-.16-7.65.36-10.87.49-.28,0,0,.51.22.58Z" transform="translate(-135.75 -90.06)"/><path d="M371.54,268.42c4.34-1.77,6.84-4.45,11.19-3.39s8.4,3.93,12.69,4.71c3.44.62,6.86,1.33,10.3,1.9,4.79.79,9.57-3.81,7.92-8.6-.39-1.12-1.7-2.25-3-1.72-.83.33-4.45,2.92-3.62,3-1.26-.11-2.51-.19-3.77-.26-4.54-.27-14.94-4-19.44-4.37-5.28-.4-10.3,4.45-12.29,8.74-.13.28-.27.11,0,0Z" transform="translate(-135.75 -90.06)"/><path class="cls-6" d="M384.16,277.12c3.09.5,6.07,1.47,9.11,2.21a4.35,4.35,0,0,0,5.56-4c.05-3-2.65-4.55-5.38-4.23-3.57.4-6.7,2.16-9.81,3.85-1.1.6-.55,2,.52,2.15Z" transform="translate(-135.75 -90.06)"/><path d="M391.26,286.16a60.13,60.13,0,0,0,15.22-6.23c5.14-3,8.72-11.5,7.42-16.59-.41-1.6-3.34-2.18-4.15-.53-2.64,5.36-.41,11.4-6.22,15.58-3.89,2.8-8.08,5.34-12.27,7.77Z" transform="translate(-135.75 -90.06)"/><path class="cls-4" d="M416.9,266c.55-4.55-1-9.52-3.33-14.24a.73.73,0,0,0-1.33.16c-.88,5,4.9,9,4.66,14.08Z" transform="translate(-135.75 -90.06)"/><path class="cls-4" d="M406.2,279.82,404,277.88q-4.84.87-9.7,1.71-7.93-1.29-15.83-2.69c1-1.58,1.94-3.15,2.9-4.73,2.69-.87,5.37-1.76,8.05-2.65q-3.31-3.22-6.59-6.48,7.62.34,15.25.58,6.88,1.17,13.8,2.27Q409.05,272.87,406.2,279.82Z" transform="translate(-135.75 -90.06)"/><path class="cls-3" d="M457.64,280l-6.73.35c-2-.49-4-1-6-1.5l4.5-3.72c2.58-.17,5.15-.34,7.72-.53q6.48,1.81,13,3.53Q463.89,279.1,457.64,280Z" transform="translate(-135.75 -90.06)"/><path class="cls-6" d="M461.81,276.85c-3.26-3.44-6.9-5-11.94-3.22-1.68.59-3.41,1.43-4.27,2.86-.62,1.05-4.43.86-5.71,1.09s0-.13,1-.78a14.93,14.93,0,0,1,2.15-1c.8-.35,1-1,1.73-1.65a10.17,10.17,0,0,1,5.87-2.2c4.77-.47,10.52.66,13.14,4.38.07.09-.09.2-.17.12Z" transform="translate(-135.75 -90.06)"/><path class="cls-6" d="M454.35,272.54c-.38,0-.75.12-1.12.17a4.73,4.73,0,0,1-1.06,0l-1.07-.09h-.18a5.31,5.31,0,0,1-.68,0,3.37,3.37,0,0,0-1.05,2.54,3.33,3.33,0,0,0,3.59,3.15,3.51,3.51,0,0,0,3.36-3.56,3.21,3.21,0,0,0-.73-1.91A3.39,3.39,0,0,1,454.35,272.54Z" transform="translate(-135.75 -90.06)"/><path class="cls-6" d="M460.8,277.27a24.19,24.19,0,0,1-6,1.42,21.78,21.78,0,0,1-5.53,0c-1.33-.2-2.61-.52-4-.61a13,13,0,0,1-2.78-.93c-.67-.26,1.11-1.17,1.77-.91s.85.8,1.62.89c1,.13,2.07.34,3.09.53a21,21,0,0,0,5.77.19,34.74,34.74,0,0,0,5.2-.68c.15,0,.9.05.75.09Z" transform="translate(-135.75 -90.06)"/><path class="cls-3" d="M456.66,275.15l-2.67.16s-1.18-1,0-1.26a9.81,9.81,0,0,1,2.66-.17C456.63,274.3,456.64,274.72,456.66,275.15Z" transform="translate(-135.75 -90.06)"/><path class="cls-6" d="M463.37,276.11c-1.51-1.32-1.55-1.62-3.51-2.5s-4-2.18-6.06-2.41a21.47,21.47,0,0,0-5.28.06,23.22,23.22,0,0,0-4.07,1.08,24.6,24.6,0,0,0-3,2.46s2.34-4.95,5.8-5.59c1.83-.32,1.91-1.54,3.54-1.3,7.62,1.12,13.93,2.76,16.05,8.2-.85.27-1.94-.12-2.79.14,0,.17-.49,0-.67-.14Z" transform="translate(-135.75 -90.06)"/><path class="cls-6" d="M461.87,276c1.4-.46-.09-1.39,1.31-1.14,1.13.22,5.89,1.64,6.16,2.85a39.8,39.8,0,0,0-9.71.37c-.55.12,1.68-1.88,2.24-2.08Z" transform="translate(-135.75 -90.06)"/><path class="cls-6" d="M458.17,271.1c-3.81.94-8.38.26-12.19,1a12.31,12.31,0,0,0-2.77,1,16.84,16.84,0,0,0-1.55.89c-.88.52-.94-.16-.39-.47,1.33-.76,2.48-1.66,4.08-1.79.3,0,.32.38.08.48-1.57.61-2.67,1.77-4.05,2.67a1.5,1.5,0,0,1-1.95-.29.88.88,0,0,1,0-1.27,14.19,14.19,0,0,1,8.29-3c3.26-.17,7.65.35,10.88.48.27,0,0,.51-.23.58Z" transform="translate(-135.75 -90.06)"/><path d="M473.15,268.44c-4.34-1.78-6.85-4.46-11.2-3.39s-8.4,3.92-12.69,4.7c-3.44.61-6.86,1.33-10.3,1.9-4.78.79-9.57-3.82-7.92-8.61.39-1.12,1.7-2.25,3-1.72.83.34,4.45,2.92,3.62,3,1.26-.11,2.52-.19,3.77-.27,4.53-.26,14.95-4,19.45-4.35,5.27-.41,10.3,4.45,12.29,8.74.12.27.26.11,0,0Z" transform="translate(-135.75 -90.06)"/><path class="cls-6" d="M460.52,277.14c-3.08.49-6.07,1.47-9.11,2.2a4.34,4.34,0,0,1-5.56-4c-.05-3,2.65-4.55,5.38-4.23,3.58.4,6.69,2.16,9.82,3.85a1.16,1.16,0,0,1-.53,2.16Z" transform="translate(-135.75 -90.06)"/><path class="cls-6" d="M453.42,286.17a59.31,59.31,0,0,1-15.22-6.24c-5.14-3-8.73-11.5-7.41-16.59.41-1.6,3.33-2.18,4.14-.53,2.64,5.37.41,11.4,6.21,15.59,3.9,2.8,8.08,5.34,12.28,7.77Z" transform="translate(-135.75 -90.06)"/><path class="cls-4" d="M427.78,266c-.55-4.55,1-9.52,3.33-14.23a.74.74,0,0,1,1.34.16c.88,5-4.92,9-4.67,14.07Z" transform="translate(-135.75 -90.06)"/><path class="cls-4" d="M438.48,279.83l2.23-1.95q4.85.89,9.71,1.72,7.92-1.29,15.83-2.69c-1-1.57-1.93-3.15-2.9-4.73q-4-1.31-8.05-2.65c2.21-2.14,4.41-4.31,6.6-6.47q-7.63.33-15.26.56-6.88,1.19-13.79,2.27Q435.64,272.87,438.48,279.83Z" transform="translate(-135.75 -90.06)"/><path class="cls-4" d="M359,295.2s4.57-47.89,28.39-54.27c9.28-2.44,36-3.34,36-3.34V161H420.6c-31.75,0-73.38,28.16-73.23,56.23C347.52,244.49,359,295.2,359,295.2Z" transform="translate(-135.75 -90.06)"/><path class="cls-4" d="M321,362.92a34.76,34.76,0,0,1-13.83-3.06h0c7.41,3.21,19.43-2.9,24.2-8.18,16.05-17.79,24.07-45.88,22.55-80.58l11.26-.49c1.43,32.91-6.49,72.56-27.43,87A29.16,29.16,0,0,1,321,362.92Z" transform="translate(-135.75 -90.06)"/><path class="cls-4" d="M358.25,292.22l-8,28.18s-9-27.32-9.14-43.25S353,257.83,354,248.25,358.25,292.22,358.25,292.22Z" transform="translate(-135.75 -90.06)"/><path class="cls-4" d="M304.87,356.94s6.46,3.39,22.79-7.59c14.72-9.89,22.23-34.26,22.23-34.26s.38-34.83-2.52-13.3-15.34,26.46-25.73,35C309.36,346.82,304.87,356.94,304.87,356.94Z" transform="translate(-135.75 -90.06)"/><path class="cls-4" d="M487.2,295.2s-4.57-47.89-28.39-54.27c-9.06-2.38-9.17-1.3-36-3.38V161h2.78c31.75,0,73.38,28.16,73.23,56.23C498.7,244.49,487.2,295.2,487.2,295.2Z" transform="translate(-135.75 -90.06)"/><path class="cls-4" d="M525.27,362.92a34.76,34.76,0,0,0,13.83-3.06h0c-7.41,3.21-19.43-2.9-24.2-8.18-16-17.79-24.07-45.88-22.55-80.58l-11.26-.49c-1.43,32.91,6.49,72.56,27.43,87A29.14,29.14,0,0,0,525.27,362.92Z" transform="translate(-135.75 -90.06)"/><path class="cls-4" d="M488,292.22l8,28.18s8.95-27.32,9.14-43.25-11.93-19.32-12.91-28.9S488,292.22,488,292.22Z" transform="translate(-135.75 -90.06)"/><path class="cls-4" d="M541.35,356.94s-6.46,3.39-22.79-7.59c-14.72-9.89-22.23-34.26-22.23-34.26s-.38-34.83,2.52-13.3,15.33,26.46,25.73,35C536.86,346.82,541.35,356.94,541.35,356.94Z" transform="translate(-135.75 -90.06)"/><path class="cls-3" d="M357.78,298.82h0c.17-1.33,2.83-33.43,17.88-50.19l2,3.15C365,267.55,357.82,298.5,357.78,298.82Z" transform="translate(-135.75 -90.06)"/><path class="cls-3" d="M488.47,298.82h0c-.17-1.33-2.83-33.43-17.88-50.19l-2,3.15C481.21,267.55,488.43,298.5,488.47,298.82Z" transform="translate(-135.75 -90.06)"/><path d="M321.31,283.28c.08-1,.16-1.94.23-2.91a67.81,67.81,0,0,1,2.65-15.22,33.61,33.61,0,0,1,6-11.74A20.88,20.88,0,0,1,339,247a.84.84,0,0,0,.47-.54,147,147,0,0,1,6.63-21.22.75.75,0,0,0-.08-.64,9.15,9.15,0,0,1-2.23-6.89,51,51,0,0,1,8.11-24.53,39.67,39.67,0,0,1,23.49-16.76,90.44,90.44,0,0,1,12.59-2.7,6.32,6.32,0,0,0,2.15-.74,71.56,71.56,0,0,1,22.41-7.71,66.32,66.32,0,0,1,18-.43,82.59,82.59,0,0,1,27,8.12,5.8,5.8,0,0,0,2,.52,87.17,87.17,0,0,1,14.65,2.93,40.34,40.34,0,0,1,19.35,11.46A45,45,0,0,1,503.44,205a50.26,50.26,0,0,1,2.48,12.67,9.06,9.06,0,0,1-3.81,8.3.58.58,0,0,0-.24.72,158.44,158.44,0,0,1,3.57,19.81,1,1,0,0,0,.68.91,21,21,0,0,1,8.76,7.34A37.67,37.67,0,0,1,520.61,268a76.65,76.65,0,0,1,1.95,22.69,36.18,36.18,0,0,1-3.16,13.53,18.63,18.63,0,0,1-9.33,9.54.73.73,0,0,0-.36.45c-1.15,6.36-2.94,12.58-4.56,18.83a59.5,59.5,0,0,0-1.91,13,95.68,95.68,0,0,1-1.54,12.85c-1.39,8.29-3.21,16.49-5.27,24.63a3.47,3.47,0,0,1-3.11,2.74,3.39,3.39,0,0,1-3.39-2,6.16,6.16,0,0,1-.38-1.67,188.6,188.6,0,0,1-1.16-21.78q0-10,.88-20c.3-3.44.6-6.88,1-10.32.2-1.84.58-3.67.83-5.51.17-1.23.27-2.48.41-3.71a2.77,2.77,0,0,1,.1-.5,2.31,2.31,0,0,0-.68-2.66,2.26,2.26,0,0,0-2.74-.12c-1,.67-2,1.46-3,2.14-1.49,1-3,2-4.53,2.93a1,1,0,0,1-.64.07,25.25,25.25,0,0,0,7.3-11.09c-.67.76-1.33,1.53-2,2.27a26.22,26.22,0,0,1-8.15,6c-.45.21-.44.21-1.18-.28a26.09,26.09,0,0,0,7.29-10.93,22.89,22.89,0,0,1-9.26,8.24c0-.08,0-.14,0-.17,1.41-2.19,2.88-4.34,4.22-6.58a28.16,28.16,0,0,0,3.64-8.48c.39-1.81,1.07-3.56,1.62-5.33a8.57,8.57,0,0,0,.1-3.53c-.24-2.3-1.51-4.21-2.16-6.35-1-3.39-2-6.81-3-10.22-.61-2.16-1.23-4.32-1.74-6.5a17.21,17.21,0,0,1-.43-3.42A70.63,70.63,0,0,1,478.5,247a.87.87,0,0,0-.24-.91c-.49-.52-.92-1.08-1.41-1.6a2.68,2.68,0,0,0-.79-.64c-2.57-1.2-5.18-2.31-7.72-3.55A85.33,85.33,0,0,1,452.08,230a2,2,0,0,0-.7-.36A96,96,0,0,0,437,227a114.37,114.37,0,0,0-16.45-.54,136.23,136.23,0,0,0-19.32,2.11,5.62,5.62,0,0,1-.57.09,5.83,5.83,0,0,0-3.26,1.49,84.22,84.22,0,0,1-18.35,11.24,46.4,46.4,0,0,1-4.94,1.7c-1.35.44-2.71.85-4.07,1.24-.82.22-1.65.38-2.47.56a2.74,2.74,0,0,0-1.78,1.27,40.89,40.89,0,0,0-2.79,5.48,36,36,0,0,0-2,6.72c-.48,2.18-1.15,4.33-1.62,6.52A80.58,80.58,0,0,0,357.94,276c-.23,3.28-.55,6.54-.78,9.82a40.89,40.89,0,0,0-.12,4.43,8.76,8.76,0,0,0,.5,2.23,20.37,20.37,0,0,1,.44,9.24c-.75,4.5-1.78,9-2.76,13.42a10.86,10.86,0,0,1-1.05,2.72,20.64,20.64,0,0,0-2.37,12,15.58,15.58,0,0,1-.09,2.36,204.52,204.52,0,0,0,.34,23,141.78,141.78,0,0,1,.24,16.23,52.57,52.57,0,0,1-2.66,15.19,19.85,19.85,0,0,1-1.86,3.75,3.09,3.09,0,0,1-3.42,1.37,3.31,3.31,0,0,1-2.7-2.66,4.16,4.16,0,0,1-.07-.86c-.12-5.16-.15-10.33-.36-15.49a141.52,141.52,0,0,0-1.9-18c-1.2-6.9-2.54-13.77-3.77-20.66a135,135,0,0,1-1.92-15.53c-.09-1.47-.15-2.95-.26-4.42a.85.85,0,0,0-.32-.65c-4.43-2.31-7.22-6-9.06-10.55a36.12,36.12,0,0,1-2.33-9.88c-.14-1.25-.23-2.51-.35-3.77ZM444.08,182.62c0,.25,0,.46.06.67s.1.6.17.9A18,18,0,0,0,453,196.12a184.09,184.09,0,0,0,18,9.18A97.82,97.82,0,0,0,486,210.88a19.87,19.87,0,0,0,5.74.77,2.06,2.06,0,0,0,1.93-1.07,11.73,11.73,0,0,0,1.66-7.51,21.46,21.46,0,0,0-5.28-11.85c-3.52-3.95-7.51-7.33-12.52-9.26a61.33,61.33,0,0,0-28.82-3.83,29.69,29.69,0,0,0-3.7.78c-.38.09-.81.21-.86.73-.08.89-.15,1.78-.24,2.71l.47,0c1.49-.17,3-.4,4.46-.51a59.07,59.07,0,0,1,15.65.78,39,39,0,0,1,14.83,5.83A26.19,26.19,0,0,1,491,206a20.7,20.7,0,0,1,.34,5.27c-.11-.62-.18-1.25-.28-1.87a27.69,27.69,0,0,0-8.37-16.27c-5-4.71-11.05-7.24-17.59-8.81a64.22,64.22,0,0,0-12.42-1.69C449.82,182.53,447,182.62,444.08,182.62Zm-38.75,0a2.54,2.54,0,0,0-.35-.06,78.18,78.18,0,0,0-19.19,1.4,42.36,42.36,0,0,0-15,5.87,27.66,27.66,0,0,0-12.2,17.73c-.27,1.17-.41,2.37-.61,3.56a26.4,26.4,0,0,1,.15-3.88,25.4,25.4,0,0,1,5.1-12.59,30.89,30.89,0,0,1,14.66-10.24,48.65,48.65,0,0,1,12.63-2.63,59.46,59.46,0,0,1,10.59.06c1.36.14,2.73.3,4.14.46,0-.63,0-1.24,0-1.84-.08-1.22-.22-1.38-1.38-1.7a32.85,32.85,0,0,0-8.31-1,66.39,66.39,0,0,0-16.38,1.84c-6.25,1.47-12,3.91-16.8,8.36a25.88,25.88,0,0,0-7.88,12.12,13.05,13.05,0,0,0,.91,10.2,2.42,2.42,0,0,0,2.41,1.38,25.3,25.3,0,0,0,7.22-1.27A117.61,117.61,0,0,0,381.17,204a145.63,145.63,0,0,0,16.11-8.51C402.05,192.54,404.36,188,405.33,182.65ZM360.4,249.13l-.09,0a2.78,2.78,0,0,0-.26.34c-2.56,4.24-5.2,8.42-7.65,12.72a145.52,145.52,0,0,0-11.67,25.67A90.32,90.32,0,0,0,336.09,310a79.82,79.82,0,0,0,1,19.22c1.06,6.35,2.27,12.68,3.48,19,1.24,6.54,2.35,13.1,3,19.73.53,5.42.89,10.86,1.32,16.3.08,1.06.15,2.13.22,3.19.16-1.51.26-3,.32-4.54.22-5.7.22-11.4-.08-17.1a162.08,162.08,0,0,0-1.68-16.31c-1.12-7.2-2.34-14.39-3.44-21.59a83.45,83.45,0,0,1-1-12.33,86.21,86.21,0,0,1,2.58-20.91,145.36,145.36,0,0,1,7.26-21.5c3.32-8,7.13-15.7,11.05-23.39Zm127.15-.21-.21.11a1.54,1.54,0,0,0,.08.19A88.32,88.32,0,0,1,495.11,272a67.62,67.62,0,0,1,1.41,10.31,126,126,0,0,1-1.06,19.41c-.41,3.68-.89,7.35-1.33,11-.41,3.45-.84,6.89-1.22,10.35-.42,3.83-.86,7.66-1.17,11.51-.34,4.11-.62,8.23-.76,12.35-.15,4.41-.23,8.83-.1,13.24s.48,8.82.86,13.22c.25,2.82.74,5.61,1.12,8.42a1.06,1.06,0,0,0,.12-.62c-.07-1.9-.18-3.79-.22-5.69a253.85,253.85,0,0,1,.68-25.73c.44-5.47.93-10.94,1.54-16.39.77-6.94,1.68-13.87,2.52-20.8s1.63-13.72,1.88-20.63a65.63,65.63,0,0,0-.79-14.35,79.85,79.85,0,0,0-7.25-21.93C490.17,253.38,488.82,251.17,487.55,248.92Zm7.24-23a37.35,37.35,0,0,1-11-2,135.19,135.19,0,0,1-28.35-12.81,91.92,91.92,0,0,1-17.05-12.5,25.69,25.69,0,0,0-6.37-4.5,15.69,15.69,0,0,0-10.84-1.4,21.9,21.9,0,0,0-9.06,4.81c-2.35,2-4.56,4.07-7,5.93a128.2,128.2,0,0,1-23.62,14.11,111.9,111.9,0,0,1-18.12,6.94,33.09,33.09,0,0,1-8.94,1.4c1.19,0,2.39.1,3.57,0a51.24,51.24,0,0,0,10.39-2.19,132.14,132.14,0,0,0,27.86-12.35,88.26,88.26,0,0,0,15.9-11.54,28.79,28.79,0,0,1,4.78-3.48A14.12,14.12,0,0,1,429,194.83a21.26,21.26,0,0,1,7.27,4.23c2.13,1.81,4.17,3.75,6.38,5.46a112.76,112.76,0,0,0,21.95,13,104.28,104.28,0,0,0,21.7,7.67A27.34,27.34,0,0,0,494.79,226ZM331.07,307.84c-.55-1.36-1.13-2.61-1.57-3.9a43.33,43.33,0,0,1-1.94-13.33,111.28,111.28,0,0,1,1-16.71,65.38,65.38,0,0,1,2.52-11.73,29.79,29.79,0,0,1,5.91-11s0-.08,0-.16l-.47.31c-.17.12-.35.24-.51.37a23.44,23.44,0,0,0-6.81,8.93,48.55,48.55,0,0,0-4,14.07,67.53,67.53,0,0,0-.3,18.13,33.9,33.9,0,0,0,2.52,9.53A19.12,19.12,0,0,0,331.07,307.84Zm45.74-129.23,0,.18.28,0c1.84-.39,3.67-.8,5.51-1.17a72.72,72.72,0,0,1,12.9-1.54,68.74,68.74,0,0,1,11,1,139.44,139.44,0,0,0,16.58,1.32,150,150,0,0,0,23.57-1.76,47.59,47.59,0,0,1,8.85-.48,88.78,88.78,0,0,1,14.5,2.11l2.9.62a1,1,0,0,0-.46-.25c-1.82-.52-3.64-1.05-5.47-1.55a56.09,56.09,0,0,0-21.72-1.77c-5.13.62-10.26,1.14-15.43,1.3a150.64,150.64,0,0,1-22.07-.92c-2.69-.31-5.39-.58-8.09-.72a50.58,50.58,0,0,0-14.6,1.54C382.32,177.11,379.57,177.88,376.81,178.61Zm30,2.5a37.23,37.23,0,0,1,0,4.48,18.24,18.24,0,0,1-6.87,12.76,92.78,92.78,0,0,1-14.05,8.86,94.25,94.25,0,0,1-20,8.27,22.85,22.85,0,0,1-8.81,1,6.22,6.22,0,0,1-5.22-3.38c-.26-.52-.54-1-.85-1.65a4.06,4.06,0,0,0,0,.5,13.92,13.92,0,0,0,1.58,4.84,3.5,3.5,0,0,0,2,1.66,8.89,8.89,0,0,0,3.58.39,34,34,0,0,0,8.69-1.86A139.06,139.06,0,0,0,397.46,202a26.55,26.55,0,0,0,4.85-3.76,19.18,19.18,0,0,0,5.37-12.81A8.33,8.33,0,0,0,406.81,181.11Zm35.87-.22a1.57,1.57,0,0,0-.18.27c-.12.26-.24.52-.34.79a11.32,11.32,0,0,0-.28,5.86,19.41,19.41,0,0,0,8.59,13.33,148.94,148.94,0,0,0,19.1,10.6A92.26,92.26,0,0,0,486.29,218a20.26,20.26,0,0,0,7.06.75,4.09,4.09,0,0,0,3.76-2.58c.4-1,.75-2.09,1.07-3.15a12.1,12.1,0,0,0,.26-1.45l-.15,0-.48,1a6.08,6.08,0,0,1-4.54,3.69,13.22,13.22,0,0,1-2.34.27,25,25,0,0,1-7-1,83.86,83.86,0,0,1-16.14-6.18,105.31,105.31,0,0,1-18-10.76,16.6,16.6,0,0,1-3.84-3.87A18.94,18.94,0,0,1,442.68,180.89ZM343.19,304.26h-.07c-.09.26-.19.53-.27.79a42.35,42.35,0,0,0-1.54,14.07A121.71,121.71,0,0,0,343.38,335c1.39,8,2.81,16.06,4.21,24.08.36,2.1.7,4.19,1.05,6.29a3.54,3.54,0,0,0,.05-1c-.28-3.54-.45-7.09-.89-10.61q-1-8.46-2.38-16.86c-1-6.19-2.35-12.33-2.86-18.59a55.45,55.45,0,0,1,.15-10.93C342.83,306.37,343,305.32,343.19,304.26Zm171.32,2.92a16.66,16.66,0,0,0,2.89-4.95,41,41,0,0,0,2.54-13.91,81.13,81.13,0,0,0-.79-13.84,53,53,0,0,0-3.46-13.14,25.72,25.72,0,0,0-6.28-9.26c-.29-.27-.6-.51-.91-.77.72.95,1.5,1.83,2.18,2.78a34.37,34.37,0,0,1,4.88,10.85A79.57,79.57,0,0,1,518,279.73a77.5,77.5,0,0,1-.15,16.61,29,29,0,0,1-3.19,10.5C514.61,307,514.56,307.07,514.51,307.18ZM406,215.76l-.54.57a75.42,75.42,0,0,1-11.22,10A80.31,80.31,0,0,1,374.29,237a49.53,49.53,0,0,1-16.09,3.34,2.72,2.72,0,0,0-.42.07l.25.09a30.45,30.45,0,0,0,8,0,52.53,52.53,0,0,0,14.76-4.23,64.85,64.85,0,0,0,15.92-10A48.24,48.24,0,0,0,406,215.76Zm85.7,24.77c-2.42-.28-5-.46-7.61-.92a64.48,64.48,0,0,1-7.64-1.87,70.82,70.82,0,0,1-7.38-2.72,73.8,73.8,0,0,1-13.67-7.66,71,71,0,0,1-6.15-4.93c-1.94-1.73-3.71-3.65-5.46-5.39a45.62,45.62,0,0,0,4.59,6,57.87,57.87,0,0,0,36.46,17.68A30.55,30.55,0,0,0,491.69,240.53Zm-44.58-67.71q-22.78-10.68-46-.92A77.82,77.82,0,0,1,447.11,172.82ZM335.2,280.13h.12c.05-.19.12-.38.16-.58.74-3.65,1.48-7.29,2.19-10.94a123.8,123.8,0,0,1,3.13-13.72c.51-1.66,1.15-3.27,1.8-5.09l-.73.82a19.49,19.49,0,0,0-3.4,5.51,49.64,49.64,0,0,0-3.41,22.77C335.09,279.31,335.16,279.72,335.2,280.13Zm160.57,62.09a187.72,187.72,0,0,0,4.53-34.69A186.76,186.76,0,0,0,495.77,342.22ZM436.53,179.33c-8.56.44-17.13.54-25.71.38A45.09,45.09,0,0,0,436.53,179.33Zm57.13,97.23c-2.49,5.69-4.83,19.78-3.93,23.72a48.87,48.87,0,0,1,1.44-10.8c.81-3.27,1.84-6.49,2.77-9.73a2,2,0,0,0,.13-.67C494,278.28,493.82,277.49,493.66,276.56Z" transform="translate(-135.75 -90.06)"/><path class="cls-3" d="M444.08,182.62c2.9,0,5.74-.09,8.57,0a64.22,64.22,0,0,1,12.42,1.69c6.54,1.57,12.62,4.1,17.59,8.81A27.69,27.69,0,0,1,491,209.41c.1.62.17,1.25.28,1.87A20.7,20.7,0,0,0,491,206a26.19,26.19,0,0,0-11.63-17.59,39,39,0,0,0-14.83-5.83,59.07,59.07,0,0,0-15.65-.78c-1.49.11-3,.34-4.46.51l-.47,0c.09-.93.16-1.82.24-2.71.05-.52.48-.64.86-.73a29.69,29.69,0,0,1,3.7-.78A61.33,61.33,0,0,1,477.55,182c5,1.93,9,5.31,12.52,9.26a21.46,21.46,0,0,1,5.28,11.85,11.73,11.73,0,0,1-1.66,7.51,2.06,2.06,0,0,1-1.93,1.07,19.87,19.87,0,0,1-5.74-.77,97.82,97.82,0,0,1-15.08-5.58,184.09,184.09,0,0,1-18-9.18,18,18,0,0,1-8.66-11.93c-.07-.3-.12-.6-.17-.9S444.1,182.87,444.08,182.62Zm40,23.45c-4.9-4.42-29.91-20.1-33.45-21A240.41,240.41,0,0,0,484.12,206.07ZM464.3,189.21c3.36,3.48,17.73,12.45,20.31,12.71A89.5,89.5,0,0,0,464.3,189.21Z" transform="translate(-135.75 -90.06)"/><path class="cls-3" d="M405.33,182.65c-1,5.38-3.28,9.89-8.05,12.87A145.63,145.63,0,0,1,381.17,204a117.61,117.61,0,0,1-16.08,6.36,25.3,25.3,0,0,1-7.22,1.27,2.42,2.42,0,0,1-2.41-1.38,13.05,13.05,0,0,1-.91-10.2A25.88,25.88,0,0,1,362.43,188c4.82-4.45,10.55-6.89,16.8-8.36a66.39,66.39,0,0,1,16.38-1.84,32.85,32.85,0,0,1,8.31,1c1.16.32,1.3.48,1.38,1.7,0,.6,0,1.21,0,1.84-1.41-.16-2.78-.32-4.14-.46a59.46,59.46,0,0,0-10.59-.06,48.65,48.65,0,0,0-12.63,2.63,30.89,30.89,0,0,0-14.66,10.24,25.4,25.4,0,0,0-5.1,12.59,26.4,26.4,0,0,0-.15,3.88c.2-1.19.34-2.39.61-3.56a27.66,27.66,0,0,1,12.2-17.73,42.36,42.36,0,0,1,15-5.87,78.18,78.18,0,0,1,19.19-1.4A2.54,2.54,0,0,1,405.33,182.65Zm-6.89,2.47c-4.85,1.72-31,18.21-33.28,20.93C370.14,204.22,394.14,189.15,398.44,185.12Zm-33.63,16.75c3.61-.87,18.36-10.18,20.25-12.76A89.92,89.92,0,0,0,364.81,201.87Z" transform="translate(-135.75 -90.06)"/><path class="cls-3" d="M360.4,249.13l-.32.65c-3.92,7.69-7.73,15.42-11.05,23.39a145.36,145.36,0,0,0-7.26,21.5,86.21,86.21,0,0,0-2.58,20.91,83.45,83.45,0,0,0,1,12.33c1.1,7.2,2.32,14.39,3.44,21.59a162.08,162.08,0,0,1,1.68,16.31c.3,5.7.3,11.4.08,17.1-.06,1.51-.16,3-.32,4.54-.07-1.06-.14-2.13-.22-3.19-.43-5.44-.79-10.88-1.32-16.3-.65-6.63-1.76-13.19-3-19.73-1.21-6.33-2.42-12.66-3.48-19a79.82,79.82,0,0,1-1-19.22,90.32,90.32,0,0,1,4.64-22.18,145.52,145.52,0,0,1,11.67-25.67c2.45-4.3,5.09-8.48,7.65-12.72a2.78,2.78,0,0,1,.26-.34Z" transform="translate(-135.75 -90.06)"/><path class="cls-3" d="M487.55,248.92c1.27,2.25,2.62,4.46,3.79,6.76a79.85,79.85,0,0,1,7.25,21.93,65.63,65.63,0,0,1,.79,14.35c-.25,6.91-1.06,13.77-1.88,20.63s-1.75,13.86-2.52,20.8c-.61,5.45-1.1,10.92-1.54,16.39a253.85,253.85,0,0,0-.68,25.73c0,1.9.15,3.79.22,5.69a1.06,1.06,0,0,1-.12.62c-.38-2.81-.87-5.6-1.12-8.42-.38-4.4-.73-8.81-.86-13.22s-.05-8.83.1-13.24c.14-4.12.42-8.24.76-12.35.31-3.85.75-7.68,1.17-11.51.38-3.46.81-6.9,1.22-10.35.44-3.68.92-7.35,1.33-11a126,126,0,0,0,1.06-19.41A67.62,67.62,0,0,0,495.11,272a88.32,88.32,0,0,0-7.69-22.76,1.54,1.54,0,0,1-.08-.19Z" transform="translate(-135.75 -90.06)"/><path class="cls-3" d="M494.79,226a27.34,27.34,0,0,1-8.54-.8,104.28,104.28,0,0,1-21.7-7.67,112.76,112.76,0,0,1-21.95-13c-2.21-1.71-4.25-3.65-6.38-5.46a21.26,21.26,0,0,0-7.27-4.23A14.12,14.12,0,0,0,417,196.39a28.79,28.79,0,0,0-4.78,3.48,88.26,88.26,0,0,1-15.9,11.54,132.14,132.14,0,0,1-27.86,12.35A51.24,51.24,0,0,1,358.08,226c-1.18.1-2.38,0-3.57,0a33.09,33.09,0,0,0,8.94-1.4,111.9,111.9,0,0,0,18.12-6.94,128.2,128.2,0,0,0,23.62-14.11c2.42-1.86,4.63-4,7-5.93a21.9,21.9,0,0,1,9.06-4.81,15.69,15.69,0,0,1,10.84,1.4,25.69,25.69,0,0,1,6.37,4.5,91.92,91.92,0,0,0,17.05,12.5A135.19,135.19,0,0,0,483.84,224,37.35,37.35,0,0,0,494.79,226Z" transform="translate(-135.75 -90.06)"/><path class="cls-3" d="M331.07,307.84a19.12,19.12,0,0,1-3.54-5.45,33.9,33.9,0,0,1-2.52-9.53,67.53,67.53,0,0,1,.3-18.13,48.55,48.55,0,0,1,4-14.07,23.44,23.44,0,0,1,6.81-8.93c.16-.13.34-.25.51-.37l.47-.31c0,.08,0,.14,0,.16a29.79,29.79,0,0,0-5.91,11,65.38,65.38,0,0,0-2.52,11.73,111.28,111.28,0,0,0-1,16.71,43.33,43.33,0,0,0,1.94,13.33C329.94,305.23,330.52,306.48,331.07,307.84Z" transform="translate(-135.75 -90.06)"/><path class="cls-3" d="M376.81,178.61c2.76-.73,5.51-1.5,8.28-2.18a50.58,50.58,0,0,1,14.6-1.54c2.7.14,5.4.41,8.09.72a150.64,150.64,0,0,0,22.07.92c5.17-.16,10.3-.68,15.43-1.3A56.09,56.09,0,0,1,467,177c1.83.5,3.65,1,5.47,1.55a1,1,0,0,1,.46.25l-2.9-.62a88.78,88.78,0,0,0-14.5-2.11,47.59,47.59,0,0,0-8.85.48,150,150,0,0,1-23.57,1.76A139.44,139.44,0,0,1,406.53,177a68.74,68.74,0,0,0-11-1,72.72,72.72,0,0,0-12.9,1.54c-1.84.37-3.67.78-5.51,1.17l-.28,0Z" transform="translate(-135.75 -90.06)"/><path class="cls-3" d="M406.81,181.11a8.33,8.33,0,0,1,.87,4.35,19.18,19.18,0,0,1-5.37,12.81,26.55,26.55,0,0,1-4.85,3.76A139.06,139.06,0,0,1,366.76,217a34,34,0,0,1-8.69,1.86,8.89,8.89,0,0,1-3.58-.39,3.5,3.5,0,0,1-2-1.66,13.92,13.92,0,0,1-1.58-4.84,4.06,4.06,0,0,1,0-.5c.31.61.59,1.13.85,1.65a6.22,6.22,0,0,0,5.22,3.38,22.85,22.85,0,0,0,8.81-1,94.25,94.25,0,0,0,20-8.27,92.78,92.78,0,0,0,14.05-8.86,18.24,18.24,0,0,0,6.87-12.76A37.23,37.23,0,0,0,406.81,181.11Z" transform="translate(-135.75 -90.06)"/><path class="cls-3" d="M442.68,180.89A18.94,18.94,0,0,0,446,194.78a16.6,16.6,0,0,0,3.84,3.87,105.31,105.31,0,0,0,18,10.76,83.86,83.86,0,0,0,16.14,6.18,25,25,0,0,0,7,1,13.22,13.22,0,0,0,2.34-.27,6.08,6.08,0,0,0,4.54-3.69l.48-1,.15,0a12.1,12.1,0,0,1-.26,1.45c-.32,1.06-.67,2.12-1.07,3.15a4.09,4.09,0,0,1-3.76,2.58,20.26,20.26,0,0,1-7.06-.75,92.26,92.26,0,0,1-16.72-6.28,148.94,148.94,0,0,1-19.1-10.6,19.41,19.41,0,0,1-8.59-13.33,11.32,11.32,0,0,1,.28-5.86c.1-.27.22-.53.34-.79A1.57,1.57,0,0,1,442.68,180.89Z" transform="translate(-135.75 -90.06)"/><path class="cls-3" d="M343.19,304.26c-.17,1.06-.36,2.11-.48,3.17a55.45,55.45,0,0,0-.15,10.93c.51,6.26,1.86,12.4,2.86,18.59q1.35,8.4,2.38,16.86c.44,3.52.61,7.07.89,10.61a3.54,3.54,0,0,1-.05,1c-.35-2.1-.69-4.19-1.05-6.29-1.4-8-2.82-16.05-4.21-24.08a121.71,121.71,0,0,1-2.07-15.91A42.35,42.35,0,0,1,342.85,305c.08-.26.18-.53.27-.79Z" transform="translate(-135.75 -90.06)"/><path class="cls-3" d="M514.51,307.18c0-.11.1-.23.16-.34a29,29,0,0,0,3.19-10.5,77.5,77.5,0,0,0,.15-16.61,79.57,79.57,0,0,0-2.45-14.79,34.37,34.37,0,0,0-4.88-10.85c-.68-1-1.46-1.83-2.18-2.78.31.26.62.5.91.77a25.72,25.72,0,0,1,6.28,9.26,53,53,0,0,1,3.46,13.14,81.13,81.13,0,0,1,.79,13.84,41,41,0,0,1-2.54,13.91A16.66,16.66,0,0,1,514.51,307.18Z" transform="translate(-135.75 -90.06)"/><path class="cls-3" d="M406,215.76a48.24,48.24,0,0,1-9.3,10.49,64.85,64.85,0,0,1-15.92,10A52.53,52.53,0,0,1,366,240.5a30.45,30.45,0,0,1-8,0l-.25-.09a2.72,2.72,0,0,1,.42-.07A49.53,49.53,0,0,0,374.29,237a80.31,80.31,0,0,0,19.94-10.73,75.42,75.42,0,0,0,11.22-10Z" transform="translate(-135.75 -90.06)"/><path class="cls-3" d="M491.69,240.53a30.55,30.55,0,0,1-6.86.19A57.87,57.87,0,0,1,448.37,223a45.62,45.62,0,0,1-4.59-6c1.75,1.74,3.52,3.66,5.46,5.39a71,71,0,0,0,6.15,4.93A73.8,73.8,0,0,0,469.06,235a70.82,70.82,0,0,0,7.38,2.72,64.48,64.48,0,0,0,7.64,1.87C486.65,240.07,489.27,240.25,491.69,240.53Z" transform="translate(-135.75 -90.06)"/><path class="cls-3" d="M447.11,172.82a77.82,77.82,0,0,0-46-.92Q424.33,162.14,447.11,172.82Z" transform="translate(-135.75 -90.06)"/><path class="cls-3" d="M335.2,280.13c0-.41-.11-.82-.14-1.23a49.64,49.64,0,0,1,3.41-22.77,19.49,19.49,0,0,1,3.4-5.51l.73-.82c-.65,1.82-1.29,3.43-1.8,5.09a123.8,123.8,0,0,0-3.13,13.72c-.71,3.65-1.45,7.29-2.19,10.94,0,.2-.11.39-.16.58Z" transform="translate(-135.75 -90.06)"/><path class="cls-3" d="M495.77,342.22a186.76,186.76,0,0,1,4.53-34.69A187.72,187.72,0,0,1,495.77,342.22Z" transform="translate(-135.75 -90.06)"/><path class="cls-3" d="M436.53,179.33a45.09,45.09,0,0,1-25.71.38C419.4,179.87,428,179.77,436.53,179.33Z" transform="translate(-135.75 -90.06)"/><path class="cls-3" d="M493.66,276.56c.16.93.3,1.72.41,2.52a2,2,0,0,1-.13.67c-.93,3.24-2,6.46-2.77,9.73a48.87,48.87,0,0,0-1.44,10.8C488.83,296.34,491.17,282.25,493.66,276.56Z" transform="translate(-135.75 -90.06)"/><path d="M484.12,206.07a240.41,240.41,0,0,1-33.45-21C454.21,186,479.22,201.65,484.12,206.07Z" transform="translate(-135.75 -90.06)"/><path d="M464.3,189.21a89.5,89.5,0,0,1,20.31,12.71C482,201.66,467.66,192.69,464.3,189.21Z" transform="translate(-135.75 -90.06)"/><path d="M398.44,185.12c-4.3,4-28.3,19.1-33.28,20.93C367.41,203.33,393.59,186.84,398.44,185.12Z" transform="translate(-135.75 -90.06)"/><path d="M364.81,201.87a89.92,89.92,0,0,1,20.25-12.76C383.17,191.69,368.42,201,364.81,201.87Z" transform="translate(-135.75 -90.06)"/><path d="M426.7,255.1s-2.26,33.2,22.64,35.38c11.1,1,19.61-11.26,21.39-22.92C470.73,267.56,450.55,256.91,426.7,255.1Z" transform="translate(-135.75 -90.06)"/><path d="M482.57,274.44a.65.65,0,0,1-.4-.09c-24.58-15.29-57.59-20.61-81-22.38a307.59,307.59,0,0,0-45.29-.18.62.62,0,0,1-.67-.56.61.61,0,0,1,.53-.66s-.61-4.18-.6-4.18a451.52,451.52,0,0,1,46.56,1.13c23.5,1.78,58.64,7.33,83.43,22.75.29.17-2,3.59-2.15,3.88A.68.68,0,0,1,482.57,274.44Z" transform="translate(-135.75 -90.06)"/><path class="cls-4" d="M422.66,391.73h0c-18-4-48.19-7.81-53-16.26-5.83-10.22-8.54-61-8.73-61,10.64,10.29,21.63,18,33,28,0,0,3.69,6.26,8.25,7.57s13.47-2.47,13.45-2.48c3,.27,4,.28,7.07.55" transform="translate(-135.75 -90.06)"/><path class="cls-4" d="M422.87,391.8" transform="translate(-135.75 -90.06)"/><path class="cls-4" d="M422.67,391.73" transform="translate(-135.75 -90.06)"/><path class="cls-4" d="M484,308.48s-1.48,3.1-1.51,3.27a12.37,12.37,0,0,1-2.51-.28Z" transform="translate(-135.75 -90.06)"/><text x="-135.75" y="-90.06"/></svg>