<svg id="Calque_1" data-name="Calque 1" xmlns="http://www.w3.org/2000/svg" viewBox="0 0 754.8 440.62"><defs><style>.cls-1{fill:#fff;}.cls-2{font-size:124.84px;font-family:Breamcatcher-Regular, Breamcatcher;}.cls-10,.cls-2,.cls-7{fill:#010101;}.cls-3{letter-spacing:-0.03em;}.cls-4{letter-spacing:0.01em;}.cls-5{letter-spacing:-0.03em;}.cls-6{fill:#050506;}.cls-10,.cls-6{fill-rule:evenodd;}.cls-7{font-size:284.15px;font-family:GillSans-BoldExtraCondensed, Gill Sans BoldExtraCondensed;font-weight:700;}.cls-8{letter-spacing:-0.03em;}.cls-9{letter-spacing:0em;}</style></defs><path class="cls-1" d="M434.81,246.78l.81-2.95,1.27.64Z" transform="translate(-41.77 -91.98)"/><text class="cls-2" transform="translate(107 388.18) scale(0.97 1)">MAD <tspan class="cls-3" x="171.65" y="0">A</tspan><tspan class="cls-4" x="212.35" y="0">T</tspan><tspan x="247.3" y="0">TEN</tspan><tspan class="cls-5" x="364.15" y="0">D</tspan><tspan x="404.72" y="0">ANTS</tspan></text><path class="cls-6" d="M407.59,521.27,109.43,517l298.16-3.66Zm36.58-7.85,298.15,3.44-298.15,4.3Z" transform="translate(-41.77 -91.98)"/><polygon class="cls-6" points="382.64 402.25 386.16 416.98 397.72 416.84 388.37 425.89 391.99 440.62 382.64 431.56 373.38 440.62 377.01 425.89 367.65 416.84 379.12 416.98 382.64 402.25"/><text class="cls-7" transform="translate(0 255.16) scale(1.15 1)"><tspan xml:space="preserve">S  N  G </tspan><tspan class="cls-8" x="415.12" y="0"> </tspan><tspan class="cls-9" x="439.27" y="0" xml:space="preserve">A  F</tspan></text><polygon class="cls-10" points="116.33 124.22 121.4 134.8 132.74 136.5 124.53 144.74 126.47 156.38 116.33 150.88 106.18 156.38 108.12 144.74 99.91 136.5 111.25 134.8 116.33 124.22"/><polygon class="cls-10" points="296.17 124.22 301.24 134.8 312.58 136.5 304.38 144.74 306.31 156.38 296.17 150.88 286.02 156.38 287.96 144.74 279.75 136.5 291.09 134.8 296.17 124.22"/><polygon class="cls-10" points="477.9 124.22 482.97 134.8 494.32 136.5 486.11 144.74 488.05 156.38 477.9 150.88 467.75 156.38 469.69 144.74 461.48 136.5 472.82 134.8 477.9 124.22"/><polygon class="cls-10" points="641.32 124.22 646.39 134.8 657.74 136.5 649.53 144.74 651.47 156.38 641.32 150.88 631.17 156.38 633.11 144.74 624.9 136.5 636.25 134.8 641.32 124.22"/></svg>